<svg xmlns="http://www.w3.org/2000/svg" viewBox="0 0 28 28" fill="none">
  <path d="M24.4997 14C24.4997 14.2321 24.4075 14.4546 24.2434 14.6187C24.0793 14.7828 23.8568 14.875 23.6247 14.875H6.48674L12.8688 21.2559C12.9501 21.3372 13.0146 21.4337 13.0586 21.54C13.1026 21.6462 13.1252 21.76 13.1252 21.875C13.1252 21.99 13.1026 22.1038 13.0586 22.21C13.0146 22.3163 12.9501 22.4128 12.8688 22.4941C12.7875 22.5754 12.691 22.6398 12.5847 22.6838C12.4785 22.7278 12.3647 22.7505 12.2497 22.7505C12.1347 22.7505 12.0209 22.7278 11.9147 22.6838C11.8085 22.6398 11.7119 22.5754 11.6306 22.4941L3.75565 14.6191C3.67429 14.5378 3.60976 14.4413 3.56572 14.3351C3.52169 14.2288 3.49902 14.115 3.49902 14C3.49902 13.885 3.52169 13.7711 3.56572 13.6649C3.60976 13.5587 3.67429 13.4622 3.75565 13.3809L11.6306 5.50594C11.7948 5.34175 12.0175 5.24951 12.2497 5.24951C12.4819 5.24951 12.7046 5.34175 12.8688 5.50594C13.033 5.67012 13.1252 5.8928 13.1252 6.125C13.1252 6.35719 13.033 6.57988 12.8688 6.74406L6.48674 13.125H23.6247C23.8568 13.125 24.0793 13.2172 24.2434 13.3813C24.4075 13.5454 24.4997 13.7679 24.4997 14Z" fill="#646570"/>
</svg>