<svg xmlns="http://www.w3.org/2000/svg" viewBox="0 0 30 30" fill="none">
  <path d="M25.9928 20.618C25.3424 19.4977 24.3756 16.3277 24.3756 12.1875C24.3756 9.7011 23.3879 7.31653 21.6297 5.55837C19.8716 3.80022 17.487 2.8125 15.0006 2.8125C12.5142 2.8125 10.1296 3.80022 8.37147 5.55837C6.61332 7.31653 5.6256 9.7011 5.6256 12.1875C5.6256 16.3289 4.65763 19.4977 4.00724 20.618C3.84115 20.9028 3.7531 21.2264 3.75196 21.5561C3.75083 21.8858 3.83666 22.2099 4.00079 22.4959C4.16492 22.7818 4.40155 23.0195 4.68681 23.1848C4.97208 23.3501 5.29589 23.4373 5.6256 23.4375H10.408C10.6243 24.4959 11.1995 25.4471 12.0364 26.1302C12.8732 26.8133 13.9203 27.1864 15.0006 27.1864C16.0809 27.1864 17.128 26.8133 17.9648 26.1302C18.8017 25.4471 19.3769 24.4959 19.5932 23.4375H24.3756C24.7052 23.4371 25.0289 23.3497 25.314 23.1843C25.5991 23.0189 25.8355 22.7813 25.9995 22.4954C26.1635 22.2095 26.2492 21.8854 26.2481 21.5558C26.2469 21.2262 26.1588 20.9027 25.9928 20.618ZM15.0006 25.3125C14.4191 25.3123 13.852 25.1319 13.3773 24.7961C12.9026 24.4604 12.5436 23.9857 12.3498 23.4375H17.6514C17.4576 23.9857 17.0986 24.4604 16.6239 24.7961C16.1492 25.1319 15.5821 25.3123 15.0006 25.3125ZM5.6256 21.5625C6.52794 20.0109 7.5006 16.4156 7.5006 12.1875C7.5006 10.1984 8.29077 8.29072 9.69729 6.8842C11.1038 5.47768 13.0115 4.6875 15.0006 4.6875C16.9897 4.6875 18.8974 5.47768 20.3039 6.8842C21.7104 8.29072 22.5006 10.1984 22.5006 12.1875C22.5006 16.4121 23.4709 20.0074 24.3756 21.5625H5.6256Z" fill="#ABB0B4"/>
</svg>