<svg fill="currentColor" viewBox="0 0 17 24"  xmlns="http://www.w3.org/2000/svg">
<path d="M16.5491 11.7617L6.04912 23.0117C5.93784 23.1305 5.79097 23.2098 5.63065 23.2378C5.47034 23.2657 5.30528 23.2408 5.16039 23.1667C5.0155 23.0926 4.89863 22.9734 4.82743 22.827C4.75623 22.6807 4.73456 22.5152 4.76568 22.3555L6.14005 15.4808L0.737238 13.452C0.621205 13.4086 0.517731 13.3372 0.436059 13.244C0.354388 13.1509 0.297063 13.0389 0.269207 12.9182C0.24135 12.7975 0.243829 12.6718 0.276422 12.5522C0.309016 12.4327 0.370708 12.3231 0.455988 12.2333L10.956 0.983274C11.0673 0.864526 11.2141 0.785191 11.3745 0.75724C11.5348 0.729289 11.6998 0.75424 11.8447 0.828326C11.9896 0.902412 12.1065 1.02161 12.1777 1.16794C12.2489 1.31428 12.2706 1.47979 12.2394 1.63952L10.8613 8.52171L16.2641 10.5477C16.3793 10.5913 16.4819 10.6627 16.563 10.7555C16.644 10.8483 16.7009 10.9596 16.7287 11.0796C16.7565 11.1996 16.7544 11.3246 16.7224 11.4436C16.6904 11.5626 16.6296 11.6718 16.5454 11.7617H16.5491Z"/>
</svg>
