<svg xmlns="http://www.w3.org/2000/svg" width="100%" height="100%" viewBox="0 0 24 24" >
<path d="M19.9777 2.00928H7.22766C6.43201 2.00928 5.66895 2.32535 5.10634 2.88796C4.54373 3.45057 4.22766 4.21363 4.22766 5.00928V20.7593C4.22766 20.9582 4.30668 21.149 4.44733 21.2896C4.58798 21.4303 4.77875 21.5093 4.97766 21.5093H18.4777C18.6766 21.5093 18.8673 21.4303 19.008 21.2896C19.1486 21.149 19.2277 20.9582 19.2277 20.7593C19.2277 20.5604 19.1486 20.3696 19.008 20.2289C18.8673 20.0883 18.6766 20.0093 18.4777 20.0093H5.72766C5.72766 19.6115 5.8857 19.2299 6.167 18.9486C6.44831 18.6673 6.82984 18.5093 7.22766 18.5093H19.9777C20.1766 18.5093 20.3673 18.4303 20.508 18.2896C20.6486 18.149 20.7277 17.9582 20.7277 17.7593V2.75928C20.7277 2.56036 20.6486 2.3696 20.508 2.22895C20.3673 2.08829 20.1766 2.00928 19.9777 2.00928ZM19.2277 17.0093H7.22766C6.70092 17.0086 6.18338 17.1473 5.72766 17.4115V5.00928C5.72766 4.61145 5.8857 4.22992 6.167 3.94862C6.44831 3.66731 6.82984 3.50928 7.22766 3.50928H19.2277V17.0093Z" fill="#ABB0B4"/>
</svg>