<svg xmlns="http://www.w3.org/2000/svg" viewBox="0 0 28 28" fill="none">
  <path d="M5.5 20.125L23.5 20.125C24.0304 20.125 24.5391 19.9406 24.9142 19.6124C25.2893 19.2842 25.5 18.8391 25.5 18.375L25.5 6.125C25.5 5.66087 25.2893 5.21575 24.9142 4.88756C24.5391 4.55938 24.0304 4.375 23.5 4.375L5.5 4.375C4.96956 4.375 4.46086 4.55938 4.08579 4.88757C3.71071 5.21575 3.5 5.66087 3.5 6.125L3.5 18.375C3.5 18.8391 3.71071 19.2842 4.08579 19.6124C4.46086 19.9406 4.96957 20.125 5.5 20.125ZM5.5 6.125L23.5 6.125L23.5 18.375L5.5 18.375L5.5 6.125ZM2.5 22.75C2.5 22.2668 2.89175 21.875 3.375 21.875L21.5 21.875C21.7652 21.875 22.0196 21.9672 22.2071 22.1313C22.3946 22.2954 22.5 22.5179 22.5 22.75C22.5 22.9821 22.3946 23.2046 22.2071 23.3687C22.0196 23.5328 21.7652 23.625 21.5 23.625L3.375 23.625C2.89175 23.625 2.5 23.2333 2.5 22.75Z" fill="#0C1228"/>
  <path d="M5.5 20.125L23.5 20.125C24.0304 20.125 24.5391 19.9406 24.9142 19.6124C25.2893 19.2842 25.5 18.8391 25.5 18.375L25.5 6.125C25.5 5.66087 25.2893 5.21575 24.9142 4.88756C24.5391 4.55938 24.0304 4.375 23.5 4.375L5.5 4.375C4.96956 4.375 4.46086 4.55938 4.08579 4.88757C3.71071 5.21575 3.5 5.66087 3.5 6.125L3.5 18.375C3.5 18.8391 3.71071 19.2842 4.08579 19.6124C4.46086 19.9406 4.96957 20.125 5.5 20.125ZM5.5 6.125L23.5 6.125L23.5 18.375L5.5 18.375L5.5 6.125ZM2.5 22.75C2.5 22.2668 2.89175 21.875 3.375 21.875L21.5 21.875C21.7652 21.875 22.0196 21.9672 22.2071 22.1313C22.3946 22.2954 22.5 22.5179 22.5 22.75C22.5 22.9821 22.3946 23.2046 22.2071 23.3687C22.0196 23.5328 21.7652 23.625 21.5 23.625L3.375 23.625C2.89175 23.625 2.5 23.2333 2.5 22.75Z" fill="black" fill-opacity="0.2"/>
  <path d="M5.5 20.125L23.5 20.125C24.0304 20.125 24.5391 19.9406 24.9142 19.6124C25.2893 19.2842 25.5 18.8391 25.5 18.375L25.5 6.125C25.5 5.66087 25.2893 5.21575 24.9142 4.88756C24.5391 4.55938 24.0304 4.375 23.5 4.375L5.5 4.375C4.96956 4.375 4.46086 4.55938 4.08579 4.88757C3.71071 5.21575 3.5 5.66087 3.5 6.125L3.5 18.375C3.5 18.8391 3.71071 19.2842 4.08579 19.6124C4.46086 19.9406 4.96957 20.125 5.5 20.125ZM5.5 6.125L23.5 6.125L23.5 18.375L5.5 18.375L5.5 6.125ZM2.5 22.75C2.5 22.2668 2.89175 21.875 3.375 21.875L21.5 21.875C21.7652 21.875 22.0196 21.9672 22.2071 22.1313C22.3946 22.2954 22.5 22.5179 22.5 22.75C22.5 22.9821 22.3946 23.2046 22.2071 23.3687C22.0196 23.5328 21.7652 23.625 21.5 23.625L3.375 23.625C2.89175 23.625 2.5 23.2333 2.5 22.75Z" fill="black" fill-opacity="0.2"/>
</svg>