<svg xmlns="http://www.w3.org/2000/svg"  viewBox="0 0 18 18" fill="none">
  <path d="M9 0C7.21997 0 5.47991 0.527841 3.99987 1.51677C2.51983 2.50571 1.36628 3.91131 0.685088 5.55585C0.00389957 7.20038 -0.17433 9.00998 0.172936 10.7558C0.520203 12.5016 1.37737 14.1053 2.63604 15.364C3.89471 16.6226 5.49836 17.4798 7.24419 17.8271C8.99002 18.1743 10.7996 17.9961 12.4442 17.3149C14.0887 16.6337 15.4943 15.4802 16.4832 14.0001C17.4722 12.5201 18 10.78 18 9C17.9974 6.61386 17.0483 4.32622 15.361 2.63896C13.6738 0.951708 11.3861 0.00264685 9 0ZM9 16C7.61553 16 6.26216 15.5895 5.11101 14.8203C3.95987 14.0511 3.06266 12.9579 2.53285 11.6788C2.00303 10.3997 1.86441 8.99223 2.13451 7.63437C2.4046 6.2765 3.07129 5.02922 4.05026 4.05025C5.02922 3.07128 6.2765 2.4046 7.63437 2.1345C8.99224 1.86441 10.3997 2.00303 11.6788 2.53284C12.9579 3.06266 14.0511 3.95986 14.8203 5.11101C15.5895 6.26215 16 7.61553 16 9C15.998 10.8559 15.2599 12.6352 13.9476 13.9476C12.6352 15.2599 10.8559 15.998 9 16ZM8 9.33333V5C8 4.73478 8.10536 4.48043 8.2929 4.29289C8.48043 4.10536 8.73479 4 9 4C9.26522 4 9.51957 4.10536 9.70711 4.29289C9.89464 4.48043 10 4.73478 10 5V9.33333C10 9.59855 9.89464 9.8529 9.70711 10.0404C9.51957 10.228 9.26522 10.3333 9 10.3333C8.73479 10.3333 8.48043 10.228 8.2929 10.0404C8.10536 9.8529 8 9.59855 8 9.33333ZM10.3333 12.6667C10.3333 12.9304 10.2551 13.1882 10.1086 13.4074C9.96212 13.6267 9.75388 13.7976 9.51025 13.8985C9.26661 13.9994 8.99852 14.0258 8.73988 13.9744C8.48124 13.9229 8.24366 13.7959 8.05719 13.6095C7.87072 13.423 7.74374 13.1854 7.69229 12.9268C7.64084 12.6681 7.66725 12.4001 7.76816 12.1564C7.86908 11.9128 8.03998 11.7045 8.25924 11.558C8.47851 11.4115 8.73629 11.3333 9 11.3333C9.35362 11.3333 9.69276 11.4738 9.94281 11.7239C10.1929 11.9739 10.3333 12.313 10.3333 12.6667Z" fill="#F23A3A"/>
</svg>