<svg xmlns="http://www.w3.org/2000/svg"  viewBox="0 0 24 24" fill="none">
  <path d="M7.21588 9.73438C7.05969 9.73438 6.90989 9.79642 6.79945 9.90687C6.689 10.0173 6.62695 10.1671 6.62695 10.3233C6.62695 10.4795 6.689 10.6293 6.79945 10.7397C6.90989 10.8502 7.05969 10.9122 7.21588 10.9122H13.5305C13.6867 10.9122 13.8365 10.8502 13.9469 10.7397C14.0574 10.6293 14.1194 10.4795 14.1194 10.3233C14.1194 10.1671 14.0574 10.0173 13.9469 9.90687C13.8365 9.79642 13.6867 9.73438 13.5305 9.73438H7.21588ZM10.0552 13.0775H7.21588C7.05969 13.0775 6.90989 13.1396 6.79945 13.25C6.689 13.3605 6.62695 13.5102 6.62695 13.6664C6.62695 13.8226 6.689 13.9724 6.79945 14.0829C6.90989 14.1933 7.05969 14.2554 7.21588 14.2554H10.0552C10.2114 14.2554 10.3611 14.1933 10.4716 14.0829C10.582 13.9724 10.6441 13.8226 10.6441 13.6664C10.6441 13.5102 10.582 13.3605 10.4716 13.25C10.3611 13.1396 10.2114 13.0775 10.0552 13.0775Z" fill="#ABB0B4" stroke="#ABB0B4" stroke-width="0.25"/>
  <path d="M9.96859 20.5721H5.4862C5.02207 20.5709 4.57739 20.3856 4.24981 20.0568C3.92223 19.728 3.73853 19.2826 3.73905 18.8185V6.88943C3.73853 6.42529 3.92223 5.97992 4.24981 5.65112C4.57739 5.32231 5.02207 5.13695 5.4862 5.13574H6.70266V5.28362C6.70318 5.69662 6.86752 6.09255 7.15961 6.38452C7.45171 6.67649 7.8477 6.84066 8.2607 6.84101H13.8882C14.3012 6.84066 14.6972 6.67649 14.9893 6.38452C15.2814 6.09255 15.4457 5.69662 15.4463 5.28362V5.13574H16.6568C17.6364 5.13574 18.4033 5.90592 18.4033 6.88943V10.2463C18.4033 10.4025 18.4654 10.5523 18.5758 10.6627C18.6863 10.7732 18.8361 10.8352 18.9922 10.8352C19.1484 10.8352 19.2982 10.7732 19.4087 10.6627C19.5191 10.5523 19.5812 10.4025 19.5812 10.2463V6.88943C19.5812 6.11307 19.2732 5.36841 18.7249 4.81883C18.1765 4.26924 17.4325 3.95962 16.6562 3.95789H15.4456V3.80738C15.4451 3.39439 15.2807 2.99846 14.9886 2.70649C14.6966 2.41452 14.3006 2.25035 13.8876 2.25H8.26004C7.84705 2.25035 7.45105 2.41452 7.15896 2.70649C6.86686 2.99846 6.70253 3.39439 6.70201 3.80738V3.95789H5.4862C4.70978 3.95962 3.96574 4.26922 3.41728 4.81879C2.86882 5.36835 2.56072 6.11301 2.56055 6.88943V18.8185C2.56055 20.4347 3.8732 21.75 5.4862 21.75H9.96859C10.1248 21.75 10.2746 21.688 10.385 21.5775C10.4955 21.4671 10.5575 21.3173 10.5575 21.1611C10.5575 21.0049 10.4955 20.8551 10.385 20.7446C10.2746 20.6342 10.1248 20.5721 9.96859 20.5721ZM7.88117 3.80738C7.88117 3.59799 8.0513 3.42785 8.2607 3.42785H13.8882C14.0976 3.42785 14.2677 3.59799 14.2677 3.80738V5.28297C14.2677 5.49237 14.0976 5.6625 13.8882 5.6625H8.2607C8.16004 5.6625 8.06351 5.62251 7.99233 5.55134C7.92115 5.48016 7.88117 5.38363 7.88117 5.28297V3.80738Z" fill="#ABB0B4" stroke="#ABB0B4" stroke-width="0.25"/>
  <path d="M20.8153 12.8905C20.0091 12.0837 18.6016 12.083 17.7947 12.8905L12.5736 18.1117C12.4059 18.279 12.2947 18.4945 12.2556 18.7281L11.969 20.4222C11.9388 20.6015 11.9519 20.7855 12.0072 20.9586C12.0626 21.1318 12.1586 21.2893 12.2872 21.4178C12.4158 21.5463 12.5733 21.6422 12.7465 21.6975C12.9197 21.7528 13.1036 21.7658 13.2829 21.7355L14.9764 21.4496C15.2113 21.4097 15.4246 21.2997 15.5928 21.1316L20.814 15.9104C21.2139 15.5097 21.4386 14.9668 21.4388 14.4007C21.439 13.8346 21.2148 13.2916 20.8153 12.8905ZM14.7808 20.2887L13.1311 20.6179L13.4072 18.9447L17.1495 15.2024L18.5047 16.5576L14.7808 20.2887ZM19.9816 15.0774L19.3364 15.7239L17.9819 14.3694L18.6278 13.7235C18.7164 13.6344 18.8218 13.5637 18.938 13.5155C19.0541 13.4673 19.1786 13.4426 19.3044 13.4428C19.4937 13.443 19.6787 13.4992 19.836 13.6045C19.9934 13.7097 20.116 13.8592 20.1885 14.0341C20.2609 14.209 20.28 14.4014 20.2431 14.5871C20.2063 14.7728 20.1153 14.9434 19.9816 15.0774Z" fill="#ABB0B4" stroke="#ABB0B4" stroke-width="0.25"/>
</svg>