<svg xmlns="http://www.w3.org/2000/svg"  viewBox="0 0 20 20" >
  <path d="M10 1.8833C8.39303 1.8833 6.82214 2.35982 5.486 3.25261C4.14985 4.1454 3.10844 5.41435 2.49348 6.899C1.87852 8.38365 1.71762 10.0173 2.03112 11.5934C2.34463 13.1695 3.11846 14.6172 4.25476 15.7535C5.39106 16.8898 6.8388 17.6637 8.4149 17.9772C9.99099 18.2907 11.6247 18.1298 13.1093 17.5148C14.594 16.8999 15.8629 15.8585 16.7557 14.5223C17.6485 13.1862 18.125 11.6153 18.125 10.0083C18.1227 7.85412 17.266 5.78881 15.7427 4.26557C14.2195 2.74233 12.1542 1.88558 10 1.8833ZM10 16.8833C8.64026 16.8833 7.31105 16.4801 6.18046 15.7247C5.04987 14.9692 4.16868 13.8955 3.64833 12.6392C3.12798 11.383 2.99183 10.0007 3.2571 8.66706C3.52238 7.33344 4.17716 6.10843 5.13864 5.14694C6.10013 4.18546 7.32514 3.53068 8.65876 3.2654C9.99238 3.00013 11.3747 3.13628 12.631 3.65663C13.8872 4.17698 14.9609 5.05817 15.7164 6.18876C16.4718 7.31934 16.875 8.64855 16.875 10.0083C16.8729 11.831 16.1479 13.5785 14.8591 14.8674C13.5702 16.1562 11.8227 16.8812 10 16.8833ZM15 10.0083C15 10.1741 14.9342 10.333 14.8169 10.4502C14.6997 10.5675 14.5408 10.6333 14.375 10.6333H10C9.83424 10.6333 9.67527 10.5675 9.55806 10.4502C9.44085 10.333 9.375 10.1741 9.375 10.0083V5.6333C9.375 5.46754 9.44085 5.30857 9.55806 5.19136C9.67527 5.07415 9.83424 5.0083 10 5.0083C10.1658 5.0083 10.3247 5.07415 10.4419 5.19136C10.5592 5.30857 10.625 5.46754 10.625 5.6333V9.3833H14.375C14.5408 9.3833 14.6997 9.44915 14.8169 9.56636C14.9342 9.68357 15 9.84254 15 10.0083Z" />
</svg>