<svg xmlns="http://www.w3.org/2000/svg"  viewBox="0 0 28 28" fill="none">
  <path d="M7.55974 10.2977L3.11693 14L7.55974 17.7024C7.65057 17.7751 7.72598 17.8652 7.78158 17.9674C7.83717 18.0696 7.87181 18.1819 7.88349 18.2976C7.89517 18.4134 7.88364 18.5303 7.84959 18.6416C7.81553 18.7528 7.75963 18.8562 7.68515 18.9456C7.61067 19.035 7.51911 19.1086 7.41583 19.1622C7.31255 19.2157 7.19963 19.2482 7.08366 19.2576C6.96769 19.267 6.85101 19.2532 6.74044 19.217C6.62988 19.1807 6.52765 19.1228 6.43974 19.0466L1.18974 14.6716C1.09123 14.5895 1.01197 14.4867 0.957581 14.3706C0.903192 14.2544 0.875 14.1277 0.875 13.9995C0.875 13.8712 0.903192 13.7446 0.957581 13.6284C1.01197 13.5123 1.09123 13.4095 1.18974 13.3274L6.43974 8.95237C6.61814 8.80385 6.84823 8.73228 7.0794 8.75341C7.31056 8.77454 7.52387 8.88663 7.67239 9.06503C7.82092 9.24343 7.89248 9.47352 7.87136 9.70469C7.85023 9.93586 7.73814 10.1492 7.55974 10.2977ZM26.8097 13.3274L21.5597 8.95237C21.4714 8.87883 21.3694 8.82341 21.2597 8.78927C21.1499 8.75513 21.0345 8.74295 20.9201 8.75341C20.8056 8.76387 20.6943 8.79677 20.5926 8.85024C20.4908 8.90371 20.4006 8.97669 20.3271 9.06503C20.1786 9.24343 20.107 9.47352 20.1281 9.70469C20.1492 9.93586 20.2613 10.1492 20.4397 10.2977L24.8826 14L20.4397 17.7024C20.3489 17.7751 20.2735 17.8652 20.2179 17.9674C20.1623 18.0696 20.1277 18.1819 20.116 18.2976C20.1043 18.4134 20.1158 18.5303 20.1499 18.6416C20.1839 18.7528 20.2398 18.8562 20.3143 18.9456C20.3888 19.035 20.4804 19.1086 20.5836 19.1622C20.6869 19.2157 20.7999 19.2482 20.9158 19.2576C21.0318 19.267 21.1485 19.2532 21.259 19.217C21.3696 19.1807 21.4718 19.1228 21.5597 19.0466L26.8097 14.6716C26.9082 14.5895 26.9875 14.4867 27.0419 14.3706C27.0963 14.2544 27.1245 14.1277 27.1245 13.9995C27.1245 13.8712 27.0963 13.7446 27.0419 13.6284C26.9875 13.5123 26.9082 13.4095 26.8097 13.3274ZM17.7983 3.55253C17.6903 3.51331 17.5756 3.49576 17.4608 3.50086C17.346 3.50597 17.2334 3.53364 17.1293 3.58229C17.0252 3.63094 16.9317 3.69962 16.8541 3.7844C16.7765 3.86919 16.7164 3.96842 16.6772 4.07644L9.67724 23.3264C9.63786 23.4345 9.62017 23.5493 9.62519 23.6642C9.63021 23.7791 9.65784 23.8919 9.70651 23.9962C9.75517 24.1004 9.8239 24.194 9.90878 24.2716C9.99365 24.3493 10.093 24.4094 10.2011 24.4486C10.297 24.4827 10.398 24.5001 10.4997 24.5C10.6794 24.5 10.8548 24.4447 11.0019 24.3416C11.1491 24.2385 11.2609 24.0925 11.3222 23.9236L18.3222 4.67362C18.3615 4.56561 18.379 4.45093 18.3739 4.33614C18.3688 4.22134 18.3411 4.10867 18.2925 4.00457C18.2438 3.90046 18.1752 3.80696 18.0904 3.7294C18.0056 3.65184 17.9063 3.59174 17.7983 3.55253Z" fill="#0C1228"/>
  <path d="M7.55974 10.2977L3.11693 14L7.55974 17.7024C7.65057 17.7751 7.72598 17.8652 7.78158 17.9674C7.83717 18.0696 7.87181 18.1819 7.88349 18.2976C7.89517 18.4134 7.88364 18.5303 7.84959 18.6416C7.81553 18.7528 7.75963 18.8562 7.68515 18.9456C7.61067 19.035 7.51911 19.1086 7.41583 19.1622C7.31255 19.2157 7.19963 19.2482 7.08366 19.2576C6.96769 19.267 6.85101 19.2532 6.74044 19.217C6.62988 19.1807 6.52765 19.1228 6.43974 19.0466L1.18974 14.6716C1.09123 14.5895 1.01197 14.4867 0.957581 14.3706C0.903192 14.2544 0.875 14.1277 0.875 13.9995C0.875 13.8712 0.903192 13.7446 0.957581 13.6284C1.01197 13.5123 1.09123 13.4095 1.18974 13.3274L6.43974 8.95237C6.61814 8.80385 6.84823 8.73228 7.0794 8.75341C7.31056 8.77454 7.52387 8.88663 7.67239 9.06503C7.82092 9.24343 7.89248 9.47352 7.87136 9.70469C7.85023 9.93586 7.73814 10.1492 7.55974 10.2977ZM26.8097 13.3274L21.5597 8.95237C21.4714 8.87883 21.3694 8.82341 21.2597 8.78927C21.1499 8.75513 21.0345 8.74295 20.9201 8.75341C20.8056 8.76387 20.6943 8.79677 20.5926 8.85024C20.4908 8.90371 20.4006 8.97669 20.3271 9.06503C20.1786 9.24343 20.107 9.47352 20.1281 9.70469C20.1492 9.93586 20.2613 10.1492 20.4397 10.2977L24.8826 14L20.4397 17.7024C20.3489 17.7751 20.2735 17.8652 20.2179 17.9674C20.1623 18.0696 20.1277 18.1819 20.116 18.2976C20.1043 18.4134 20.1158 18.5303 20.1499 18.6416C20.1839 18.7528 20.2398 18.8562 20.3143 18.9456C20.3888 19.035 20.4804 19.1086 20.5836 19.1622C20.6869 19.2157 20.7999 19.2482 20.9158 19.2576C21.0318 19.267 21.1485 19.2532 21.259 19.217C21.3696 19.1807 21.4718 19.1228 21.5597 19.0466L26.8097 14.6716C26.9082 14.5895 26.9875 14.4867 27.0419 14.3706C27.0963 14.2544 27.1245 14.1277 27.1245 13.9995C27.1245 13.8712 27.0963 13.7446 27.0419 13.6284C26.9875 13.5123 26.9082 13.4095 26.8097 13.3274ZM17.7983 3.55253C17.6903 3.51331 17.5756 3.49576 17.4608 3.50086C17.346 3.50597 17.2334 3.53364 17.1293 3.58229C17.0252 3.63094 16.9317 3.69962 16.8541 3.7844C16.7765 3.86919 16.7164 3.96842 16.6772 4.07644L9.67724 23.3264C9.63786 23.4345 9.62017 23.5493 9.62519 23.6642C9.63021 23.7791 9.65784 23.8919 9.70651 23.9962C9.75517 24.1004 9.8239 24.194 9.90878 24.2716C9.99365 24.3493 10.093 24.4094 10.2011 24.4486C10.297 24.4827 10.398 24.5001 10.4997 24.5C10.6794 24.5 10.8548 24.4447 11.0019 24.3416C11.1491 24.2385 11.2609 24.0925 11.3222 23.9236L18.3222 4.67362C18.3615 4.56561 18.379 4.45093 18.3739 4.33614C18.3688 4.22134 18.3411 4.10867 18.2925 4.00457C18.2438 3.90046 18.1752 3.80696 18.0904 3.7294C18.0056 3.65184 17.9063 3.59174 17.7983 3.55253Z" fill="black" fill-opacity="0.2"/>
  <path d="M7.55974 10.2977L3.11693 14L7.55974 17.7024C7.65057 17.7751 7.72598 17.8652 7.78158 17.9674C7.83717 18.0696 7.87181 18.1819 7.88349 18.2976C7.89517 18.4134 7.88364 18.5303 7.84959 18.6416C7.81553 18.7528 7.75963 18.8562 7.68515 18.9456C7.61067 19.035 7.51911 19.1086 7.41583 19.1622C7.31255 19.2157 7.19963 19.2482 7.08366 19.2576C6.96769 19.267 6.85101 19.2532 6.74044 19.217C6.62988 19.1807 6.52765 19.1228 6.43974 19.0466L1.18974 14.6716C1.09123 14.5895 1.01197 14.4867 0.957581 14.3706C0.903192 14.2544 0.875 14.1277 0.875 13.9995C0.875 13.8712 0.903192 13.7446 0.957581 13.6284C1.01197 13.5123 1.09123 13.4095 1.18974 13.3274L6.43974 8.95237C6.61814 8.80385 6.84823 8.73228 7.0794 8.75341C7.31056 8.77454 7.52387 8.88663 7.67239 9.06503C7.82092 9.24343 7.89248 9.47352 7.87136 9.70469C7.85023 9.93586 7.73814 10.1492 7.55974 10.2977ZM26.8097 13.3274L21.5597 8.95237C21.4714 8.87883 21.3694 8.82341 21.2597 8.78927C21.1499 8.75513 21.0345 8.74295 20.9201 8.75341C20.8056 8.76387 20.6943 8.79677 20.5926 8.85024C20.4908 8.90371 20.4006 8.97669 20.3271 9.06503C20.1786 9.24343 20.107 9.47352 20.1281 9.70469C20.1492 9.93586 20.2613 10.1492 20.4397 10.2977L24.8826 14L20.4397 17.7024C20.3489 17.7751 20.2735 17.8652 20.2179 17.9674C20.1623 18.0696 20.1277 18.1819 20.116 18.2976C20.1043 18.4134 20.1158 18.5303 20.1499 18.6416C20.1839 18.7528 20.2398 18.8562 20.3143 18.9456C20.3888 19.035 20.4804 19.1086 20.5836 19.1622C20.6869 19.2157 20.7999 19.2482 20.9158 19.2576C21.0318 19.267 21.1485 19.2532 21.259 19.217C21.3696 19.1807 21.4718 19.1228 21.5597 19.0466L26.8097 14.6716C26.9082 14.5895 26.9875 14.4867 27.0419 14.3706C27.0963 14.2544 27.1245 14.1277 27.1245 13.9995C27.1245 13.8712 27.0963 13.7446 27.0419 13.6284C26.9875 13.5123 26.9082 13.4095 26.8097 13.3274ZM17.7983 3.55253C17.6903 3.51331 17.5756 3.49576 17.4608 3.50086C17.346 3.50597 17.2334 3.53364 17.1293 3.58229C17.0252 3.63094 16.9317 3.69962 16.8541 3.7844C16.7765 3.86919 16.7164 3.96842 16.6772 4.07644L9.67724 23.3264C9.63786 23.4345 9.62017 23.5493 9.62519 23.6642C9.63021 23.7791 9.65784 23.8919 9.70651 23.9962C9.75517 24.1004 9.8239 24.194 9.90878 24.2716C9.99365 24.3493 10.093 24.4094 10.2011 24.4486C10.297 24.4827 10.398 24.5001 10.4997 24.5C10.6794 24.5 10.8548 24.4447 11.0019 24.3416C11.1491 24.2385 11.2609 24.0925 11.3222 23.9236L18.3222 4.67362C18.3615 4.56561 18.379 4.45093 18.3739 4.33614C18.3688 4.22134 18.3411 4.10867 18.2925 4.00457C18.2438 3.90046 18.1752 3.80696 18.0904 3.7294C18.0056 3.65184 17.9063 3.59174 17.7983 3.55253Z" fill="black" fill-opacity="0.2"/>
</svg>