<svg viewBox="0 0 16 16" fill="none" xmlns="http://www.w3.org/2000/svg">
<g clip-path="url(#clip0_11866_7228)">
<path d="M14.5 7.25H14.205C14.035 5.86236 13.4056 4.57149 12.4171 3.58294C11.4285 2.5944 10.1376 1.96501 8.75 1.795V1.5C8.75 1.30109 8.67098 1.11032 8.53033 0.96967C8.38968 0.829018 8.19891 0.75 8 0.75C7.80109 0.75 7.61032 0.829018 7.46967 0.96967C7.32902 1.11032 7.25 1.30109 7.25 1.5V1.795C5.86236 1.96501 4.57149 2.5944 3.58294 3.58294C2.5944 4.57149 1.96501 5.86236 1.795 7.25H1.5C1.30109 7.25 1.11032 7.32902 0.96967 7.46967C0.829018 7.61032 0.75 7.80109 0.75 8C0.75 8.19891 0.829018 8.38968 0.96967 8.53033C1.11032 8.67098 1.30109 8.75 1.5 8.75H1.795C1.96501 10.1376 2.5944 11.4285 3.58294 12.4171C4.57149 13.4056 5.86236 14.035 7.25 14.205V14.5C7.25 14.6989 7.32902 14.8897 7.46967 15.0303C7.61032 15.171 7.80109 15.25 8 15.25C8.19891 15.25 8.38968 15.171 8.53033 15.0303C8.67098 14.8897 8.75 14.6989 8.75 14.5V14.205C10.1376 14.035 11.4285 13.4056 12.4171 12.4171C13.4056 11.4285 14.035 10.1376 14.205 8.75H14.5C14.6989 8.75 14.8897 8.67098 15.0303 8.53033C15.171 8.38968 15.25 8.19891 15.25 8C15.25 7.80109 15.171 7.61032 15.0303 7.46967C14.8897 7.32902 14.6989 7.25 14.5 7.25ZM8.75 12.6875V12.5C8.75 12.3011 8.67098 12.1103 8.53033 11.9697C8.38968 11.829 8.19891 11.75 8 11.75C7.80109 11.75 7.61032 11.829 7.46967 11.9697C7.32902 12.1103 7.25 12.3011 7.25 12.5V12.6875C6.26336 12.5278 5.35205 12.0614 4.6453 11.3547C3.93856 10.6479 3.47225 9.73664 3.3125 8.75H3.5C3.69891 8.75 3.88968 8.67098 4.03033 8.53033C4.17098 8.38968 4.25 8.19891 4.25 8C4.25 7.80109 4.17098 7.61032 4.03033 7.46967C3.88968 7.32902 3.69891 7.25 3.5 7.25H3.3125C3.47225 6.26336 3.93856 5.35205 4.6453 4.6453C5.35205 3.93856 6.26336 3.47225 7.25 3.3125V3.5C7.25 3.69891 7.32902 3.88968 7.46967 4.03033C7.61032 4.17098 7.80109 4.25 8 4.25C8.19891 4.25 8.38968 4.17098 8.53033 4.03033C8.67098 3.88968 8.75 3.69891 8.75 3.5V3.3125C9.73664 3.47225 10.6479 3.93856 11.3547 4.6453C12.0614 5.35205 12.5278 6.26336 12.6875 7.25H12.5C12.3011 7.25 12.1103 7.32902 11.9697 7.46967C11.829 7.61032 11.75 7.80109 11.75 8C11.75 8.19891 11.829 8.38968 11.9697 8.53033C12.1103 8.67098 12.3011 8.75 12.5 8.75H12.6875C12.5278 9.73664 12.0614 10.6479 11.3547 11.3547C10.6479 12.0614 9.73664 12.5278 8.75 12.6875ZM8 5.25C7.4561 5.25 6.92442 5.41128 6.47218 5.71346C6.01995 6.01563 5.66747 6.44512 5.45933 6.94762C5.25119 7.45012 5.19673 8.00305 5.30284 8.5365C5.40895 9.06995 5.67086 9.55995 6.05546 9.94454C6.44005 10.3291 6.93005 10.5911 7.4635 10.6972C7.99695 10.8033 8.54988 10.7488 9.05238 10.5407C9.55488 10.3325 9.98437 9.98005 10.2865 9.52782C10.5887 9.07558 10.75 8.5439 10.75 8C10.7492 7.27091 10.4592 6.57192 9.94363 6.05637C9.42808 5.54082 8.72909 5.25083 8 5.25ZM8 9.25C7.75277 9.25 7.5111 9.17669 7.30554 9.03934C7.09998 8.90199 6.93976 8.70676 6.84515 8.47835C6.75054 8.24995 6.72579 7.99861 6.77402 7.75614C6.82225 7.51366 6.9413 7.29093 7.11612 7.11612C7.29093 6.9413 7.51366 6.82225 7.75614 6.77402C7.99861 6.72579 8.24995 6.75054 8.47835 6.84515C8.70676 6.93976 8.90199 7.09998 9.03934 7.30554C9.17669 7.5111 9.25 7.75277 9.25 8C9.25 8.33152 9.1183 8.64946 8.88388 8.88388C8.64946 9.1183 8.33152 9.25 8 9.25Z" fill="#F23A3A"/>
</g>
<defs>
<clipPath id="clip0_11866_7228">
<rect width="16" height="16" fill="white"/>
</clipPath>
</defs>
</svg>
