<svg xmlns="http://www.w3.org/2000/svg" width="100%" height="100%" viewBox="0 0 28 28" fill="none">
<path d="M22.75 4.375H5.25C4.55381 4.375 3.88613 4.65156 3.39384 5.14384C2.90156 5.63613 2.625 6.30381 2.625 7V19.25C2.625 19.9462 2.90156 20.6139 3.39384 21.1062C3.88613 21.5984 4.55381 21.875 5.25 21.875H13.125V23.625H10.5C10.2679 23.625 10.0454 23.7172 9.88128 23.8813C9.71719 24.0454 9.625 24.2679 9.625 24.5C9.625 24.7321 9.71719 24.9546 9.88128 25.1187C10.0454 25.2828 10.2679 25.375 10.5 25.375H17.5C17.7321 25.375 17.9546 25.2828 18.1187 25.1187C18.2828 24.9546 18.375 24.7321 18.375 24.5C18.375 24.2679 18.2828 24.0454 18.1187 23.8813C17.9546 23.7172 17.7321 23.625 17.5 23.625H14.875V21.875H22.75C23.4462 21.875 24.1139 21.5984 24.6062 21.1062C25.0984 20.6139 25.375 19.9462 25.375 19.25V7C25.375 6.30381 25.0984 5.63613 24.6062 5.14384C24.1139 4.65156 23.4462 4.375 22.75 4.375ZM5.25 6.125H22.75C22.9821 6.125 23.2046 6.21719 23.3687 6.38128C23.5328 6.54538 23.625 6.76794 23.625 7V15.75H4.375V7C4.375 6.76794 4.46719 6.54538 4.63128 6.38128C4.79538 6.21719 5.01794 6.125 5.25 6.125ZM22.75 20.125H5.25C5.01794 20.125 4.79538 20.0328 4.63128 19.8687C4.46719 19.7046 4.375 19.4821 4.375 19.25V17.5H23.625V19.25C23.625 19.4821 23.5328 19.7046 23.3687 19.8687C23.2046 20.0328 22.9821 20.125 22.75 20.125Z" fill="#0C1228"/>
</svg>