<svg xmlns="http://www.w3.org/2000/svg" width="100%" height="100%" viewBox="0 0 20 20" fill="none">
  <path d="M17.5342 11.6089V15.9839C17.5342 16.3154 17.4025 16.6333 17.1681 16.8678C16.9337 17.1022 16.6158 17.2339 16.2842 17.2339H3.78424C3.45272 17.2339 3.13478 17.1022 2.90036 16.8678C2.66594 16.6333 2.53424 16.3154 2.53424 15.9839V11.6089C2.53424 11.4431 2.60009 11.2842 2.7173 11.1669C2.83451 11.0497 2.99348 10.9839 3.15924 10.9839C3.325 10.9839 3.48397 11.0497 3.60118 11.1669C3.71839 11.2842 3.78424 11.4431 3.78424 11.6089V15.9839H16.2842V11.6089C16.2842 11.4431 16.3501 11.2842 16.4673 11.1669C16.5845 11.0497 16.7435 10.9839 16.9092 10.9839C17.075 10.9839 17.234 11.0497 17.3512 11.1669C17.4684 11.2842 17.5342 11.4431 17.5342 11.6089ZM9.59205 12.0511C9.6501 12.1092 9.71903 12.1553 9.7949 12.1867C9.87078 12.2182 9.95211 12.2344 10.0342 12.2344C10.1164 12.2344 10.1977 12.2182 10.2736 12.1867C10.3495 12.1553 10.4184 12.1092 10.4764 12.0511L13.6014 8.92607C13.6595 8.86801 13.7056 8.79907 13.737 8.7232C13.7684 8.64733 13.7846 8.56601 13.7846 8.48389C13.7846 8.40176 13.7684 8.32045 13.737 8.24458C13.7056 8.16871 13.6595 8.09977 13.6014 8.0417C13.5434 7.98363 13.4744 7.93757 13.3986 7.90614C13.3227 7.87471 13.2414 7.85854 13.1592 7.85854C13.0771 7.85854 12.9958 7.87471 12.9199 7.90614C12.8441 7.93757 12.7751 7.98363 12.7171 8.0417L10.6592 10.1003V2.85889C10.6592 2.69313 10.5934 2.53416 10.4762 2.41695C10.359 2.29973 10.2 2.23389 10.0342 2.23389C9.86848 2.23389 9.70951 2.29973 9.5923 2.41695C9.47509 2.53416 9.40924 2.69313 9.40924 2.85889V10.1003L7.35143 8.0417C7.23415 7.92442 7.07509 7.85854 6.90924 7.85854C6.74339 7.85854 6.58433 7.92442 6.46705 8.0417C6.34978 8.15897 6.28389 8.31803 6.28389 8.48389C6.28389 8.64974 6.34978 8.8088 6.46705 8.92607L9.59205 12.0511Z" fill="#646570"/>
</svg>