<svg  viewBox="0 0 49 48"  xmlns="http://www.w3.org/2000/svg">
<path d="M41 7.875H8C7.30381 7.875 6.63613 8.15156 6.14384 8.64384C5.65156 9.13613 5.375 9.80381 5.375 10.5V40.5C5.37494 40.6917 5.42389 40.8803 5.51719 41.0478C5.6105 41.2153 5.74506 41.3562 5.90812 41.457C6.07117 41.5579 6.2573 41.6155 6.44883 41.6242C6.64037 41.6329 6.83096 41.5925 7.0025 41.5069L12.5 38.7581L17.9975 41.5069C18.1536 41.5848 18.3256 41.6253 18.5 41.6253C18.6744 41.6253 18.8464 41.5848 19.0025 41.5069L24.5 38.7581L29.9975 41.5069C30.1536 41.5848 30.3256 41.6253 30.5 41.6253C30.6744 41.6253 30.8464 41.5848 31.0025 41.5069L36.5 38.7581L41.9975 41.5069C42.1536 41.5847 42.3256 41.6251 42.5 41.625C42.7088 41.6253 42.9135 41.5668 43.0906 41.4562C43.2538 41.3556 43.3885 41.2149 43.4821 41.0476C43.5756 40.8802 43.6248 40.6917 43.625 40.5V10.5C43.625 9.80381 43.3484 9.13613 42.8562 8.64384C42.3639 8.15156 41.6962 7.875 41 7.875ZM41.375 38.6794L37.0025 36.4931C36.8464 36.4152 36.6744 36.3747 36.5 36.3747C36.3256 36.3747 36.1536 36.4152 35.9975 36.4931L30.5 39.2419L25.0025 36.4931C24.8464 36.4152 24.6744 36.3747 24.5 36.3747C24.3256 36.3747 24.1536 36.4152 23.9975 36.4931L18.5 39.2419L13.0025 36.4931C12.8464 36.4152 12.6744 36.3747 12.5 36.3747C12.3256 36.3747 12.1536 36.4152 11.9975 36.4931L7.625 38.6794V10.5C7.625 10.4005 7.66451 10.3052 7.73483 10.2348C7.80516 10.1645 7.90054 10.125 8 10.125H41C41.0995 10.125 41.1948 10.1645 41.2652 10.2348C41.3355 10.3052 41.375 10.4005 41.375 10.5V38.6794ZM19.5069 17.4919C19.4136 17.3047 19.2699 17.1472 19.0921 17.0371C18.9142 16.927 18.7092 16.8687 18.5 16.8687C18.2908 16.8687 18.0858 16.927 17.9079 17.0371C17.7301 17.1472 17.5864 17.3047 17.4931 17.4919L11.4931 29.4919C11.4271 29.6241 11.3878 29.768 11.3775 29.9154C11.3671 30.0629 11.3859 30.2109 11.4327 30.351C11.4795 30.4912 11.5535 30.6207 11.6504 30.7323C11.7473 30.8439 11.8653 30.9353 11.9975 31.0012C12.1297 31.0672 12.2737 31.1065 12.4211 31.1169C12.5685 31.1273 12.7165 31.1085 12.8566 31.0617C12.9968 31.0148 13.1264 30.9408 13.2379 30.8439C13.3495 30.747 13.4409 30.6291 13.5069 30.4969L14.6956 28.125H22.3044L23.4931 30.5025C23.6264 30.7695 23.8603 30.9727 24.1434 31.0673C24.4264 31.1619 24.7355 31.1401 25.0025 31.0069C25.2695 30.8736 25.4727 30.6397 25.5673 30.3566C25.6619 30.0736 25.6401 29.7645 25.5069 29.4975L19.5069 17.4919ZM15.8206 25.875L18.5 20.5162L21.1794 25.875H15.8206ZM37.625 24C37.625 24.2984 37.5065 24.5845 37.2955 24.7955C37.0845 25.0065 36.7984 25.125 36.5 25.125H33.125V28.5C33.125 28.7984 33.0065 29.0845 32.7955 29.2955C32.5845 29.5065 32.2984 29.625 32 29.625C31.7016 29.625 31.4155 29.5065 31.2045 29.2955C30.9935 29.0845 30.875 28.7984 30.875 28.5V25.125H27.5C27.2016 25.125 26.9155 25.0065 26.7045 24.7955C26.4935 24.5845 26.375 24.2984 26.375 24C26.375 23.7016 26.4935 23.4155 26.7045 23.2045C26.9155 22.9935 27.2016 22.875 27.5 22.875H30.875V19.5C30.875 19.2016 30.9935 18.9155 31.2045 18.7045C31.4155 18.4935 31.7016 18.375 32 18.375C32.2984 18.375 32.5845 18.4935 32.7955 18.7045C33.0065 18.9155 33.125 19.2016 33.125 19.5V22.875H36.5C36.7984 22.875 37.0845 22.9935 37.2955 23.2045C37.5065 23.4155 37.625 23.7016 37.625 24Z" />
</svg>
