<svg xmlns="http://www.w3.org/2000/svg" width="100%" height="100%" viewBox="0 0 24 24" fill="none">
<path d="M20.25 4.5H3.75C3.35217 4.5 2.97064 4.65804 2.68934 4.93934C2.40803 5.22064 2.25 5.60218 2.25 6V21C2.2483 21.2859 2.32913 21.5662 2.48278 21.8074C2.63643 22.0485 2.85638 22.2401 3.11625 22.3594C3.31482 22.4516 3.53106 22.4996 3.75 22.5C4.10212 22.4992 4.44257 22.3736 4.71093 22.1456C4.71541 22.1427 4.7195 22.1392 4.72312 22.1353L7.73437 19.5H20.25C20.6478 19.5 21.0294 19.342 21.3107 19.0607C21.592 18.7794 21.75 18.3978 21.75 18V6C21.75 5.60218 21.592 5.22064 21.3107 4.93934C21.0294 4.65804 20.6478 4.5 20.25 4.5ZM20.25 18H7.73437C7.38114 17.9998 7.03919 18.1243 6.76875 18.3516L6.7575 18.3619L3.75 21V6H20.25V18ZM10.875 12C10.875 11.7775 10.941 11.56 11.0646 11.375C11.1882 11.19 11.3639 11.0458 11.5695 10.9606C11.775 10.8755 12.0012 10.8532 12.2195 10.8966C12.4377 10.94 12.6382 11.0472 12.7955 11.2045C12.9528 11.3618 13.06 11.5623 13.1034 11.7805C13.1468 11.9988 13.1245 12.225 13.0394 12.4305C12.9542 12.6361 12.81 12.8118 12.625 12.9354C12.44 13.059 12.2225 13.125 12 13.125C11.7016 13.125 11.4155 13.0065 11.2045 12.7955C10.9935 12.5845 10.875 12.2984 10.875 12ZM6.75 12C6.75 11.7775 6.81598 11.56 6.93959 11.375C7.06321 11.19 7.23891 11.0458 7.44448 10.9606C7.65004 10.8755 7.87624 10.8532 8.09447 10.8966C8.3127 10.94 8.51316 11.0472 8.67049 11.2045C8.82783 11.3618 8.93497 11.5623 8.97838 11.7805C9.02179 11.9988 8.99951 12.225 8.91436 12.4305C8.82921 12.6361 8.68502 12.8118 8.50001 12.9354C8.31501 13.059 8.0975 13.125 7.875 13.125C7.57663 13.125 7.29048 13.0065 7.0795 12.7955C6.86852 12.5845 6.75 12.2984 6.75 12ZM15 12C15 11.7775 15.066 11.56 15.1896 11.375C15.3132 11.19 15.4889 11.0458 15.6945 10.9606C15.9 10.8755 16.1262 10.8532 16.3445 10.8966C16.5627 10.94 16.7632 11.0472 16.9205 11.2045C17.0778 11.3618 17.185 11.5623 17.2284 11.7805C17.2718 11.9988 17.2495 12.225 17.1644 12.4305C17.0792 12.6361 16.935 12.8118 16.75 12.9354C16.565 13.059 16.3475 13.125 16.125 13.125C15.8266 13.125 15.5405 13.0065 15.3295 12.7955C15.1185 12.5845 15 12.2984 15 12Z" fill="#ABB0B4"/>
</svg>