<svg xmlns="http://www.w3.org/2000/svg" viewBox="0 0 28 28" fill="none">
  <path d="M13.7129 14.0013C13.7129 12.1604 15.2053 10.668 17.0463 10.668C18.8872 10.668 20.3796 12.1604 20.3796 14.0013C20.3796 15.8423 18.8872 17.3347 17.0463 17.3347C15.2053 17.3347 13.7129 15.8423 13.7129 14.0013Z" fill="#00BCFF"/>
  <path d="M7.04883 20.6658C7.04883 18.8248 8.54123 17.3324 10.3822 17.3324L12.1586 16.3945L13.7156 17.3324V20.6658C13.7156 22.5068 12.2232 23.9991 10.3822 23.9991C8.54123 23.9991 7.04883 22.5067 7.04883 20.6658Z" fill="#00CF7F"/>
  <path d="M13.7133 4L11.8994 7.15121L13.7133 10.6667H16.9999C18.8409 10.6667 20.3332 9.17433 20.3332 7.33336C20.3332 5.4924 18.8408 4 16.9999 4H13.7133Z" fill="#FF7361"/>
  <path d="M7 7.33336C7 9.17433 8.4924 10.6667 10.3334 10.6667L12.1016 11.3497L13.7135 10.6667V4H10.3333C8.4924 4 7 5.4924 7 7.33336Z" fill="#FF4D12"/>
  <path d="M7.04883 14.0014C7.04883 15.8424 8.54123 17.3347 10.3822 17.3347H13.7156V10.668H10.3822C8.54123 10.668 7.04883 12.1604 7.04883 14.0014Z" fill="#B659FF"/>
</svg>