<svg xmlns="http://www.w3.org/2000/svg" width="100%" height="100%" viewBox="0 0 17 16" fill="none">
  <path d="M14.7381 4.1725L14.7331 4.17812L10.5 8.69812V12.1663C10.5002 12.3312 10.4597 12.4936 10.3819 12.6391C10.3042 12.7846 10.1916 12.9086 10.0544 13L8.05436 14.3337C7.90364 14.4341 7.72849 14.4917 7.5476 14.5003C7.36672 14.509 7.18688 14.4683 7.0273 14.3827C6.86771 14.2971 6.73437 14.1698 6.6415 14.0143C6.54863 13.8589 6.49971 13.6811 6.49998 13.5V8.69812L2.26686 4.17812L2.26186 4.1725C2.1317 4.02926 2.04591 3.85133 2.01488 3.66029C1.98386 3.46924 2.00894 3.27331 2.08709 3.09624C2.16523 2.91917 2.29308 2.76859 2.45512 2.66275C2.61717 2.55692 2.80644 2.50038 2.99998 2.5H14C14.1937 2.50002 14.3832 2.55629 14.5455 2.66199C14.7079 2.76768 14.836 2.91825 14.9144 3.09538C14.9927 3.27252 15.018 3.46861 14.987 3.65982C14.9561 3.85104 14.8702 4.02914 14.74 4.1725H14.7381Z" fill="#ABB0B4"/>
</svg>