<svg xmlns="http://www.w3.org/2000/svg" width="100%" height="100%" viewBox="0 0 24 24" fill="none">
<path d="M23.6025 8.33824L12.3525 2.33824C12.244 2.28046 12.1229 2.25024 12 2.25024C11.8771 2.25024 11.756 2.28046 11.6475 2.33824L0.39751 8.33824C0.277514 8.40219 0.17716 8.49756 0.107185 8.61415C0.0372091 8.73073 0.000244141 8.86415 0.000244141 9.00012C0.000244141 9.13609 0.0372091 9.26951 0.107185 9.38609C0.17716 9.50268 0.277514 9.59804 0.39751 9.66199L3.00001 11.0504V15.5898C2.99923 15.9582 3.13481 16.3139 3.38064 16.5882C4.60876 17.9561 7.36032 20.2501 12 20.2501C13.5384 20.2628 15.0653 19.9842 16.5 19.4289V22.5001C16.5 22.699 16.579 22.8898 16.7197 23.0305C16.8603 23.1711 17.0511 23.2501 17.25 23.2501C17.4489 23.2501 17.6397 23.1711 17.7803 23.0305C17.921 22.8898 18 22.699 18 22.5001V18.7042C18.978 18.1396 19.8618 17.4257 20.6194 16.5882C20.8652 16.3139 21.0008 15.9582 21 15.5898V11.0504L23.6025 9.66199C23.7225 9.59804 23.8229 9.50268 23.8928 9.38609C23.9628 9.26951 23.9998 9.13609 23.9998 9.00012C23.9998 8.86415 23.9628 8.73073 23.8928 8.61415C23.8229 8.49756 23.7225 8.40219 23.6025 8.33824ZM12 18.7501C7.94345 18.7501 5.55751 16.7682 4.50001 15.5898V11.8501L11.6475 15.662C11.756 15.7198 11.8771 15.75 12 15.75C12.1229 15.75 12.244 15.7198 12.3525 15.662L16.5 13.4504V17.7948C15.3188 18.3461 13.83 18.7501 12 18.7501ZM19.5 15.5861C19.0504 16.0849 18.5474 16.5329 18 16.922V12.6498L19.5 11.8501V15.5861ZM17.625 11.1507L17.6044 11.1386L12.3544 8.33824C12.1792 8.24878 11.9759 8.2317 11.7883 8.29069C11.6007 8.34967 11.4437 8.48001 11.3513 8.65361C11.2588 8.82721 11.2382 9.03018 11.294 9.2188C11.3498 9.40741 11.4774 9.56658 11.6494 9.66199L16.0313 12.0001L12 14.1498L2.34376 9.00012L12 3.85043L21.6563 9.00012L17.625 11.1507Z" fill="#ABB0B4"/>
</svg>