<svg  viewBox="0 0 22 19" xmlns="http://www.w3.org/2000/svg">
<path d="M9.6196 2.18562C8.57916 1.18658 7.18447 0.64177 5.74235 0.671043C4.30022 0.700317 2.92879 1.30127 1.92976 2.34171C0.930719 3.38215 0.385911 4.77683 0.415184 6.21896C0.444457 7.66108 1.04541 9.03251 2.08585 10.0316L10.4643 18.5309C10.5341 18.6018 10.6173 18.6581 10.709 18.6965C10.8007 18.7349 10.8992 18.7547 10.9987 18.7547C11.0981 18.7547 11.1966 18.7349 11.2883 18.6965C11.3801 18.6581 11.4633 18.6018 11.533 18.5309L19.9049 10.0316C20.9256 9.01213 21.4995 7.62899 21.5004 6.18643C21.5012 4.74387 20.929 3.36003 19.9096 2.33937C18.8902 1.3187 17.507 0.744796 16.0645 0.743917C14.6219 0.743038 13.2381 1.31525 12.2174 2.33468L9.92991 4.49093L12.4049 6.9678C12.4746 7.03746 12.53 7.12017 12.5677 7.21122C12.6054 7.30227 12.6249 7.39987 12.6249 7.49843C12.6249 7.59699 12.6054 7.69458 12.5677 7.78563C12.53 7.87668 12.4746 7.9594 12.4049 8.02905L10.4652 9.96874C10.3955 10.0384 10.3127 10.0936 10.2216 10.1312C10.1306 10.1688 10.033 10.1882 9.93441 10.1881C9.83586 10.188 9.7383 10.1685 9.64728 10.1307C9.55627 10.0929 9.4736 10.0375 9.40397 9.9678C9.33435 9.89806 9.27915 9.81528 9.24152 9.72421C9.20389 9.63313 9.18456 9.53553 9.18465 9.43698C9.18474 9.33844 9.20424 9.24087 9.24203 9.14986C9.27982 9.05885 9.33517 8.97617 9.40491 8.90655L10.8112 7.5003L8.32679 5.00843C8.25537 4.93707 8.1991 4.85204 8.16134 4.75841C8.12358 4.66479 8.10511 4.5645 8.10703 4.46357C8.10896 4.36264 8.13124 4.26313 8.17255 4.17101C8.21385 4.0789 8.27333 3.99607 8.34741 3.92749L9.61772 2.72937C9.6546 2.69433 9.68396 2.65216 9.70403 2.60543C9.7241 2.55869 9.73444 2.50835 9.73444 2.45749C9.73444 2.40663 9.7241 2.35629 9.70403 2.30955C9.68396 2.26282 9.6546 2.22065 9.61772 2.18562H9.6196Z" />
</svg>
