<svg fill="currentColor" viewBox="0 0 40 40" xmlns="http://www.w3.org/2000/svg">
<path d="M37.4989 15.3124C37.5016 16.5028 37.2682 17.6819 36.8123 18.7815C36.3563 19.8811 35.6869 20.8794 34.8427 21.7187L20.8896 35.878C20.7732 35.9961 20.6346 36.0899 20.4817 36.1539C20.3288 36.218 20.1647 36.2509 19.9989 36.2509C19.8332 36.2509 19.6691 36.218 19.5162 36.1539C19.3633 36.0899 19.2246 35.9961 19.1083 35.878L5.15518 21.7187C3.45406 20.0196 2.49756 17.7144 2.4961 15.3101C2.49463 12.9058 3.44832 10.5995 5.14736 8.89834C6.84641 7.19722 9.15163 6.24072 11.5559 6.23926C13.9602 6.23779 16.2666 7.19148 17.9677 8.89053L19.9989 10.789L22.0442 8.88428C23.3137 7.62113 24.9289 6.76241 26.686 6.41651C28.4431 6.07062 30.2633 6.25306 31.9168 6.9408C33.5703 7.62854 34.9829 8.79075 35.9764 10.2807C36.9699 11.7707 37.4997 13.5216 37.4989 15.3124Z"/>
</svg>
