<svg  viewBox="0 0 37 40" fill="none" xmlns="http://www.w3.org/2000/svg">
<path d="M34.945 9.36914L19.82 1.09335C19.4159 0.870058 18.9617 0.75293 18.5 0.75293C18.0383 0.75293 17.5841 0.870058 17.18 1.09335L2.055 9.37257C1.62306 9.60891 1.26249 9.95688 1.01095 10.3801C0.759407 10.8034 0.626118 11.2865 0.625 11.7788V28.2169C0.626118 28.7093 0.759407 29.1924 1.01095 29.6156C1.26249 30.0389 1.62306 30.3869 2.055 30.6232L17.18 38.9024C17.5841 39.1257 18.0383 39.2428 18.5 39.2428C18.9617 39.2428 19.4159 39.1257 19.82 38.9024L34.945 30.6232C35.3769 30.3869 35.7375 30.0389 35.9891 29.6156C36.2406 29.1924 36.3739 28.7093 36.375 28.2169V11.7805C36.3748 11.2873 36.242 10.8032 35.9904 10.3789C35.7388 9.95467 35.3777 9.60589 34.945 9.36914ZM18.5 26.8746C17.1403 26.8746 15.811 26.4714 14.6805 25.716C13.5499 24.9605 12.6687 23.8868 12.1483 22.6306C11.628 21.3743 11.4918 19.992 11.7571 18.6584C12.0224 17.3247 12.6772 16.0997 13.6386 15.1382C14.6001 14.1768 15.8251 13.522 17.1588 13.2567C18.4924 12.9914 19.8747 13.1276 21.1309 13.6479C22.3872 14.1683 23.4609 15.0495 24.2164 16.1801C24.9718 17.3106 25.375 18.6399 25.375 19.9996C25.375 21.823 24.6507 23.5717 23.3614 24.861C22.072 26.1503 20.3234 26.8746 18.5 26.8746Z" fill="#573EF0"/>
</svg>
