<svg xmlns="http://www.w3.org/2000/svg" width="100%" height="100%" viewBox="0 0 80 80" fill="none">
<path d="M67.5 13.125H12.5C11.3397 13.125 10.2269 13.5859 9.40641 14.4064C8.58594 15.2269 8.125 16.3397 8.125 17.5V62.5C8.125 63.6603 8.58594 64.7731 9.40641 65.5936C10.2269 66.4141 11.3397 66.875 12.5 66.875H67.5C68.6603 66.875 69.7731 66.4141 70.5936 65.5936C71.4141 64.7731 71.875 63.6603 71.875 62.5V17.5C71.875 16.3397 71.4141 15.2269 70.5936 14.4064C69.7731 13.5859 68.6603 13.125 67.5 13.125ZM12.5 16.875H67.5C67.6658 16.875 67.8247 16.9408 67.9419 17.0581C68.0592 17.1753 68.125 17.3342 68.125 17.5V51.1156L58.9156 41.9063C58.5094 41.4999 58.027 41.1776 57.4962 40.9578C56.9654 40.7379 56.3964 40.6247 55.8219 40.6247C55.2473 40.6247 54.6784 40.7379 54.1475 40.9578C53.6167 41.1776 53.1344 41.4999 52.7281 41.9063L46.0344 48.6L31.8438 34.4062C31.4375 33.9999 30.9552 33.6776 30.4243 33.4578C29.8935 33.2379 29.3246 33.1247 28.75 33.1247C28.1754 33.1247 27.6065 33.2379 27.0757 33.4578C26.5448 33.6776 26.0625 33.9999 25.6562 34.4062L11.875 48.1875V17.5C11.875 17.3342 11.9408 17.1753 12.0581 17.0581C12.1753 16.9408 12.3342 16.875 12.5 16.875ZM11.875 62.5V53.4906L28.3063 37.0594C28.3644 37.0008 28.4335 36.9543 28.5096 36.9226C28.5858 36.8908 28.6675 36.8745 28.75 36.8745C28.8325 36.8745 28.9142 36.8908 28.9904 36.9226C29.0665 36.9543 29.1356 37.0008 29.1937 37.0594L55.2594 63.125H12.5C12.3342 63.125 12.1753 63.0592 12.0581 62.9419C11.9408 62.8247 11.875 62.6658 11.875 62.5ZM67.5 63.125H60.5625L48.6875 51.25L55.3781 44.5563C55.4362 44.4981 55.5051 44.452 55.581 44.4206C55.6568 44.3891 55.7382 44.3729 55.8203 44.3729C55.9024 44.3729 55.9838 44.3891 56.0597 44.4206C56.1355 44.452 56.2045 44.4981 56.2625 44.5563L68.1375 56.4313V62.5C68.1375 62.5831 68.1209 62.6654 68.0888 62.7421C68.0566 62.8188 68.0094 62.8882 67.95 62.9464C67.8907 63.0046 67.8203 63.0504 67.743 63.0811C67.6657 63.1117 67.5831 63.1267 67.5 63.125ZM45.625 31.25C45.625 30.6319 45.8083 30.0277 46.1517 29.5138C46.495 28.9999 46.9831 28.5994 47.5541 28.3629C48.1251 28.1264 48.7535 28.0645 49.3597 28.185C49.9658 28.3056 50.5227 28.6033 50.9597 29.0403C51.3968 29.4773 51.6944 30.0342 51.815 30.6403C51.9355 31.2465 51.8736 31.8749 51.6371 32.4459C51.4006 33.0169 51.0001 33.505 50.4862 33.8483C49.9723 34.1917 49.3681 34.375 48.75 34.375C47.9212 34.375 47.1263 34.0458 46.5403 33.4597C45.9542 32.8737 45.625 32.0788 45.625 31.25Z" fill="#ABB0B4"/>
</svg>