<svg xmlns="http://www.w3.org/2000/svg" width="100%" height="100%" viewBox="0 0 24 24" fill="none">
<path d="M22.5 18H21.75V5.25C21.75 4.85218 21.592 4.47064 21.3107 4.18934C21.0294 3.90804 20.6478 3.75 20.25 3.75H3.75C3.35218 3.75 2.97064 3.90804 2.68934 4.18934C2.40804 4.47064 2.25 4.85218 2.25 5.25V18H1.5C1.30109 18 1.11032 18.079 0.96967 18.2197C0.829018 18.3603 0.75 18.5511 0.75 18.75C0.75 18.9489 0.829018 19.1397 0.96967 19.2803C1.11032 19.421 1.30109 19.5 1.5 19.5H22.5C22.6989 19.5 22.8897 19.421 23.0303 19.2803C23.171 19.1397 23.25 18.9489 23.25 18.75C23.25 18.5511 23.171 18.3603 23.0303 18.2197C22.8897 18.079 22.6989 18 22.5 18ZM18.75 18H12V16.5C12 16.3011 12.079 16.1103 12.2197 15.9697C12.3603 15.829 12.5511 15.75 12.75 15.75H18C18.1989 15.75 18.3897 15.829 18.5303 15.9697C18.671 16.1103 18.75 16.3011 18.75 16.5V18Z" fill="white"/>
</svg>