<svg xmlns="http://www.w3.org/2000/svg"  viewBox="0 0 28 28" fill="none">
  <path d="M15.0434 20.3835C15.2074 20.5475 15.2995 20.77 15.2995 21.002C15.2995 21.2339 15.2074 21.4564 15.0434 21.6205L13.9563 22.7142C12.8065 23.8633 11.2474 24.5085 9.62198 24.508C7.99652 24.5074 6.43784 23.8612 5.28883 22.7115C4.13982 21.5618 3.4946 20.0027 3.49512 18.3772C3.49563 16.7518 4.14183 15.1931 5.29157 14.0441L7.92969 11.406C9.03404 10.3007 10.519 9.65932 12.0807 9.61296C13.6424 9.5666 15.1628 10.1188 16.3308 11.1566C16.417 11.233 16.4873 11.3256 16.5376 11.4292C16.588 11.5328 16.6175 11.6453 16.6244 11.7602C16.6313 11.8752 16.6155 11.9904 16.5779 12.0993C16.5403 12.2081 16.4816 12.3085 16.4052 12.3947C16.3287 12.4809 16.2361 12.5512 16.1325 12.6016C16.029 12.6519 15.9165 12.6814 15.8015 12.6883C15.6865 12.6952 15.5713 12.6794 15.4625 12.6418C15.3536 12.6042 15.2532 12.5455 15.167 12.4691C14.3329 11.7283 13.2472 11.3342 12.132 11.3673C11.0169 11.4004 9.95654 11.8583 9.16782 12.6474L6.52969 15.2822C5.70905 16.1028 5.24802 17.2159 5.24802 18.3764C5.24802 19.537 5.70905 20.65 6.52969 21.4706C7.35033 22.2913 8.46335 22.7523 9.62391 22.7523C10.7845 22.7523 11.8975 22.2913 12.7181 21.4706L13.8053 20.3835C13.8866 20.3021 13.9831 20.2376 14.0893 20.1935C14.1955 20.1495 14.3094 20.1268 14.4244 20.1268C14.5394 20.1268 14.6532 20.1495 14.7595 20.1935C14.8657 20.2376 14.9622 20.3021 15.0434 20.3835ZM22.7084 5.28971C21.5585 4.14239 20.0005 3.49805 18.3761 3.49805C16.7517 3.49805 15.1937 4.14239 14.0438 5.28971L12.9566 6.378C12.7925 6.54218 12.7004 6.76481 12.7005 6.9969C12.7006 7.22899 12.7929 7.45153 12.9571 7.61557C13.1213 7.77961 13.3439 7.87171 13.576 7.87161C13.8081 7.87151 14.0307 7.77921 14.1947 7.61503L15.2819 6.52784C16.1025 5.7072 17.2155 5.24617 18.3761 5.24617C19.5367 5.24617 20.6497 5.7072 21.4703 6.52784C22.291 7.34848 22.752 8.4615 22.752 9.62206C22.752 10.7826 22.291 11.8956 21.4703 12.7163L18.8322 15.3566C18.043 16.1451 16.9825 16.6025 15.8673 16.635C14.7522 16.6675 13.6667 16.2728 12.833 15.5316C12.7468 15.4552 12.6464 15.3965 12.5375 15.3589C12.4287 15.3213 12.3135 15.3054 12.1985 15.3124C11.9663 15.3263 11.7492 15.4319 11.5948 15.606C11.5184 15.6921 11.4597 15.7925 11.4221 15.9014C11.3845 16.0103 11.3687 16.1255 11.3756 16.2404C11.3896 16.4726 11.4952 16.6898 11.6692 16.8441C12.8369 17.8821 14.3571 18.4347 15.9189 18.3888C17.4806 18.3428 18.9657 17.7018 20.0703 16.5969L22.7084 13.9588C23.8564 12.8088 24.5012 11.2503 24.5012 9.62534C24.5012 8.00042 23.8564 6.44189 22.7084 5.2919V5.28971Z" fill="#0C1228"/>
  <path d="M15.0434 20.3835C15.2074 20.5475 15.2995 20.77 15.2995 21.002C15.2995 21.2339 15.2074 21.4564 15.0434 21.6205L13.9563 22.7142C12.8065 23.8633 11.2474 24.5085 9.62198 24.508C7.99652 24.5074 6.43784 23.8612 5.28883 22.7115C4.13982 21.5618 3.4946 20.0027 3.49512 18.3772C3.49563 16.7518 4.14183 15.1931 5.29157 14.0441L7.92969 11.406C9.03404 10.3007 10.519 9.65932 12.0807 9.61296C13.6424 9.5666 15.1628 10.1188 16.3308 11.1566C16.417 11.233 16.4873 11.3256 16.5376 11.4292C16.588 11.5328 16.6175 11.6453 16.6244 11.7602C16.6313 11.8752 16.6155 11.9904 16.5779 12.0993C16.5403 12.2081 16.4816 12.3085 16.4052 12.3947C16.3287 12.4809 16.2361 12.5512 16.1325 12.6016C16.029 12.6519 15.9165 12.6814 15.8015 12.6883C15.6865 12.6952 15.5713 12.6794 15.4625 12.6418C15.3536 12.6042 15.2532 12.5455 15.167 12.4691C14.3329 11.7283 13.2472 11.3342 12.132 11.3673C11.0169 11.4004 9.95654 11.8583 9.16782 12.6474L6.52969 15.2822C5.70905 16.1028 5.24802 17.2159 5.24802 18.3764C5.24802 19.537 5.70905 20.65 6.52969 21.4706C7.35033 22.2913 8.46335 22.7523 9.62391 22.7523C10.7845 22.7523 11.8975 22.2913 12.7181 21.4706L13.8053 20.3835C13.8866 20.3021 13.9831 20.2376 14.0893 20.1935C14.1955 20.1495 14.3094 20.1268 14.4244 20.1268C14.5394 20.1268 14.6532 20.1495 14.7595 20.1935C14.8657 20.2376 14.9622 20.3021 15.0434 20.3835ZM22.7084 5.28971C21.5585 4.14239 20.0005 3.49805 18.3761 3.49805C16.7517 3.49805 15.1937 4.14239 14.0438 5.28971L12.9566 6.378C12.7925 6.54218 12.7004 6.76481 12.7005 6.9969C12.7006 7.22899 12.7929 7.45153 12.9571 7.61557C13.1213 7.77961 13.3439 7.87171 13.576 7.87161C13.8081 7.87151 14.0307 7.77921 14.1947 7.61503L15.2819 6.52784C16.1025 5.7072 17.2155 5.24617 18.3761 5.24617C19.5367 5.24617 20.6497 5.7072 21.4703 6.52784C22.291 7.34848 22.752 8.4615 22.752 9.62206C22.752 10.7826 22.291 11.8956 21.4703 12.7163L18.8322 15.3566C18.043 16.1451 16.9825 16.6025 15.8673 16.635C14.7522 16.6675 13.6667 16.2728 12.833 15.5316C12.7468 15.4552 12.6464 15.3965 12.5375 15.3589C12.4287 15.3213 12.3135 15.3054 12.1985 15.3124C11.9663 15.3263 11.7492 15.4319 11.5948 15.606C11.5184 15.6921 11.4597 15.7925 11.4221 15.9014C11.3845 16.0103 11.3687 16.1255 11.3756 16.2404C11.3896 16.4726 11.4952 16.6898 11.6692 16.8441C12.8369 17.8821 14.3571 18.4347 15.9189 18.3888C17.4806 18.3428 18.9657 17.7018 20.0703 16.5969L22.7084 13.9588C23.8564 12.8088 24.5012 11.2503 24.5012 9.62534C24.5012 8.00042 23.8564 6.44189 22.7084 5.2919V5.28971Z" fill="black" fill-opacity="0.2"/>
  <path d="M15.0434 20.3835C15.2074 20.5475 15.2995 20.77 15.2995 21.002C15.2995 21.2339 15.2074 21.4564 15.0434 21.6205L13.9563 22.7142C12.8065 23.8633 11.2474 24.5085 9.62198 24.508C7.99652 24.5074 6.43784 23.8612 5.28883 22.7115C4.13982 21.5618 3.4946 20.0027 3.49512 18.3772C3.49563 16.7518 4.14183 15.1931 5.29157 14.0441L7.92969 11.406C9.03404 10.3007 10.519 9.65932 12.0807 9.61296C13.6424 9.5666 15.1628 10.1188 16.3308 11.1566C16.417 11.233 16.4873 11.3256 16.5376 11.4292C16.588 11.5328 16.6175 11.6453 16.6244 11.7602C16.6313 11.8752 16.6155 11.9904 16.5779 12.0993C16.5403 12.2081 16.4816 12.3085 16.4052 12.3947C16.3287 12.4809 16.2361 12.5512 16.1325 12.6016C16.029 12.6519 15.9165 12.6814 15.8015 12.6883C15.6865 12.6952 15.5713 12.6794 15.4625 12.6418C15.3536 12.6042 15.2532 12.5455 15.167 12.4691C14.3329 11.7283 13.2472 11.3342 12.132 11.3673C11.0169 11.4004 9.95654 11.8583 9.16782 12.6474L6.52969 15.2822C5.70905 16.1028 5.24802 17.2159 5.24802 18.3764C5.24802 19.537 5.70905 20.65 6.52969 21.4706C7.35033 22.2913 8.46335 22.7523 9.62391 22.7523C10.7845 22.7523 11.8975 22.2913 12.7181 21.4706L13.8053 20.3835C13.8866 20.3021 13.9831 20.2376 14.0893 20.1935C14.1955 20.1495 14.3094 20.1268 14.4244 20.1268C14.5394 20.1268 14.6532 20.1495 14.7595 20.1935C14.8657 20.2376 14.9622 20.3021 15.0434 20.3835ZM22.7084 5.28971C21.5585 4.14239 20.0005 3.49805 18.3761 3.49805C16.7517 3.49805 15.1937 4.14239 14.0438 5.28971L12.9566 6.378C12.7925 6.54218 12.7004 6.76481 12.7005 6.9969C12.7006 7.22899 12.7929 7.45153 12.9571 7.61557C13.1213 7.77961 13.3439 7.87171 13.576 7.87161C13.8081 7.87151 14.0307 7.77921 14.1947 7.61503L15.2819 6.52784C16.1025 5.7072 17.2155 5.24617 18.3761 5.24617C19.5367 5.24617 20.6497 5.7072 21.4703 6.52784C22.291 7.34848 22.752 8.4615 22.752 9.62206C22.752 10.7826 22.291 11.8956 21.4703 12.7163L18.8322 15.3566C18.043 16.1451 16.9825 16.6025 15.8673 16.635C14.7522 16.6675 13.6667 16.2728 12.833 15.5316C12.7468 15.4552 12.6464 15.3965 12.5375 15.3589C12.4287 15.3213 12.3135 15.3054 12.1985 15.3124C11.9663 15.3263 11.7492 15.4319 11.5948 15.606C11.5184 15.6921 11.4597 15.7925 11.4221 15.9014C11.3845 16.0103 11.3687 16.1255 11.3756 16.2404C11.3896 16.4726 11.4952 16.6898 11.6692 16.8441C12.8369 17.8821 14.3571 18.4347 15.9189 18.3888C17.4806 18.3428 18.9657 17.7018 20.0703 16.5969L22.7084 13.9588C23.8564 12.8088 24.5012 11.2503 24.5012 9.62534C24.5012 8.00042 23.8564 6.44189 22.7084 5.2919V5.28971Z" fill="black" fill-opacity="0.2"/>
</svg>