<svg xmlns="http://www.w3.org/2000/svg"  viewBox="0 0 28 28" fill="none">
  <path d="M24.5 14.0006C24.5 14.2327 24.4079 14.4553 24.2438 14.6193C24.0797 14.7834 23.8571 14.8756 23.625 14.8756H11.375C11.143 14.8756 10.9204 14.7834 10.7563 14.6193C10.5922 14.4553 10.5 14.2327 10.5 14.0006C10.5 13.7686 10.5922 13.546 10.7563 13.3819C10.9204 13.2178 11.143 13.1256 11.375 13.1256H23.625C23.8571 13.1256 24.0797 13.2178 24.2438 13.3819C24.4079 13.546 24.5 13.7686 24.5 14.0006ZM11.375 7.87563H23.625C23.8571 7.87563 24.0797 7.78344 24.2438 7.61934C24.4079 7.45525 24.5 7.23269 24.5 7.00063C24.5 6.76856 24.4079 6.546 24.2438 6.38191C24.0797 6.21781 23.8571 6.12563 23.625 6.12563H11.375C11.143 6.12563 10.9204 6.21781 10.7563 6.38191C10.5922 6.546 10.5 6.76856 10.5 7.00063C10.5 7.23269 10.5922 7.45525 10.7563 7.61934C10.9204 7.78344 11.143 7.87563 11.375 7.87563ZM23.625 20.1256H11.375C11.143 20.1256 10.9204 20.2178 10.7563 20.3819C10.5922 20.546 10.5 20.7686 10.5 21.0006C10.5 21.2327 10.5922 21.4553 10.7563 21.6193C10.9204 21.7834 11.143 21.8756 11.375 21.8756H23.625C23.8571 21.8756 24.0797 21.7834 24.2438 21.6193C24.4079 21.4553 24.5 21.2327 24.5 21.0006C24.5 20.7686 24.4079 20.546 24.2438 20.3819C24.0797 20.2178 23.8571 20.1256 23.625 20.1256ZM4.76661 6.03375L5.25005 5.79094V11.3756C5.25005 11.6077 5.34224 11.8303 5.50633 11.9943C5.67042 12.1584 5.89298 12.2506 6.12505 12.2506C6.35711 12.2506 6.57967 12.1584 6.74377 11.9943C6.90786 11.8303 7.00005 11.6077 7.00005 11.3756V4.37563C7.00016 4.2264 6.9621 4.07963 6.88949 3.94926C6.81688 3.81888 6.71214 3.70925 6.58521 3.63077C6.45829 3.55229 6.3134 3.50758 6.16432 3.50088C6.01525 3.49418 5.86694 3.52572 5.73349 3.5925L3.98349 4.4675C3.77579 4.57135 3.61785 4.75345 3.54442 4.97375C3.50806 5.08283 3.49354 5.198 3.50169 5.31269C3.50984 5.42739 3.5405 5.53935 3.59192 5.64219C3.64334 5.74503 3.71452 5.83674 3.80138 5.91207C3.88824 5.98741 3.98909 6.0449 4.09817 6.08126C4.31847 6.15469 4.55891 6.1376 4.76661 6.03375ZM8.72489 17.1419C8.67651 16.7953 8.55855 16.4621 8.37811 16.1623C8.19767 15.8626 7.95847 15.6023 7.67489 15.3973C7.10692 14.9849 6.40145 14.8081 5.7061 14.9039C5.01074 14.9997 4.37938 15.3607 3.94411 15.9114C3.77775 16.125 3.64599 16.3635 3.55364 16.618C3.50542 16.7275 3.48019 16.8458 3.47951 16.9655C3.47882 17.0852 3.5027 17.2037 3.54967 17.3138C3.59664 17.4239 3.66569 17.5232 3.75256 17.6055C3.83943 17.6879 3.94227 17.7515 4.05472 17.7925C4.16717 17.8335 4.28683 17.851 4.40632 17.8439C4.5258 17.8369 4.64255 17.8053 4.74937 17.7513C4.85618 17.6973 4.95077 17.6219 5.02729 17.5299C5.10382 17.4379 5.16065 17.3311 5.19427 17.2163C5.22489 17.1323 5.26844 17.0537 5.32333 16.9833C5.47768 16.791 5.70025 16.6656 5.94471 16.6332C6.18918 16.6008 6.43672 16.6639 6.63583 16.8094C6.73161 16.8771 6.81261 16.9636 6.87391 17.0637C6.9352 17.1637 6.97552 17.2752 6.99239 17.3913C7.00783 17.5028 7.00057 17.6162 6.97107 17.7249C6.94156 17.8335 6.8904 17.9351 6.82067 18.0234C6.81749 18.0272 6.81456 18.0313 6.81192 18.0355L3.67395 22.2267C3.57671 22.3568 3.51759 22.5114 3.50321 22.6731C3.48883 22.8349 3.51975 22.9975 3.59252 23.1427C3.66528 23.2879 3.77702 23.4099 3.91523 23.4952C4.05343 23.5805 4.21264 23.6257 4.37505 23.6256H7.87505C8.10711 23.6256 8.32967 23.5334 8.49377 23.3693C8.65786 23.2053 8.75005 22.9827 8.75005 22.7506C8.75005 22.5186 8.65786 22.296 8.49377 22.1319C8.32967 21.9678 8.10711 21.8756 7.87505 21.8756H6.12505L8.21192 19.0833C8.4235 18.8108 8.57798 18.4984 8.66611 18.1648C8.75425 17.8313 8.77424 17.4833 8.72489 17.1419Z" fill="#0C1228"/>
  <path d="M24.5 14.0006C24.5 14.2327 24.4079 14.4553 24.2438 14.6193C24.0797 14.7834 23.8571 14.8756 23.625 14.8756H11.375C11.143 14.8756 10.9204 14.7834 10.7563 14.6193C10.5922 14.4553 10.5 14.2327 10.5 14.0006C10.5 13.7686 10.5922 13.546 10.7563 13.3819C10.9204 13.2178 11.143 13.1256 11.375 13.1256H23.625C23.8571 13.1256 24.0797 13.2178 24.2438 13.3819C24.4079 13.546 24.5 13.7686 24.5 14.0006ZM11.375 7.87563H23.625C23.8571 7.87563 24.0797 7.78344 24.2438 7.61934C24.4079 7.45525 24.5 7.23269 24.5 7.00063C24.5 6.76856 24.4079 6.546 24.2438 6.38191C24.0797 6.21781 23.8571 6.12563 23.625 6.12563H11.375C11.143 6.12563 10.9204 6.21781 10.7563 6.38191C10.5922 6.546 10.5 6.76856 10.5 7.00063C10.5 7.23269 10.5922 7.45525 10.7563 7.61934C10.9204 7.78344 11.143 7.87563 11.375 7.87563ZM23.625 20.1256H11.375C11.143 20.1256 10.9204 20.2178 10.7563 20.3819C10.5922 20.546 10.5 20.7686 10.5 21.0006C10.5 21.2327 10.5922 21.4553 10.7563 21.6193C10.9204 21.7834 11.143 21.8756 11.375 21.8756H23.625C23.8571 21.8756 24.0797 21.7834 24.2438 21.6193C24.4079 21.4553 24.5 21.2327 24.5 21.0006C24.5 20.7686 24.4079 20.546 24.2438 20.3819C24.0797 20.2178 23.8571 20.1256 23.625 20.1256ZM4.76661 6.03375L5.25005 5.79094V11.3756C5.25005 11.6077 5.34224 11.8303 5.50633 11.9943C5.67042 12.1584 5.89298 12.2506 6.12505 12.2506C6.35711 12.2506 6.57967 12.1584 6.74377 11.9943C6.90786 11.8303 7.00005 11.6077 7.00005 11.3756V4.37563C7.00016 4.2264 6.9621 4.07963 6.88949 3.94926C6.81688 3.81888 6.71214 3.70925 6.58521 3.63077C6.45829 3.55229 6.3134 3.50758 6.16432 3.50088C6.01525 3.49418 5.86694 3.52572 5.73349 3.5925L3.98349 4.4675C3.77579 4.57135 3.61785 4.75345 3.54442 4.97375C3.50806 5.08283 3.49354 5.198 3.50169 5.31269C3.50984 5.42739 3.5405 5.53935 3.59192 5.64219C3.64334 5.74503 3.71452 5.83674 3.80138 5.91207C3.88824 5.98741 3.98909 6.0449 4.09817 6.08126C4.31847 6.15469 4.55891 6.1376 4.76661 6.03375ZM8.72489 17.1419C8.67651 16.7953 8.55855 16.4621 8.37811 16.1623C8.19767 15.8626 7.95847 15.6023 7.67489 15.3973C7.10692 14.9849 6.40145 14.8081 5.7061 14.9039C5.01074 14.9997 4.37938 15.3607 3.94411 15.9114C3.77775 16.125 3.64599 16.3635 3.55364 16.618C3.50542 16.7275 3.48019 16.8458 3.47951 16.9655C3.47882 17.0852 3.5027 17.2037 3.54967 17.3138C3.59664 17.4239 3.66569 17.5232 3.75256 17.6055C3.83943 17.6879 3.94227 17.7515 4.05472 17.7925C4.16717 17.8335 4.28683 17.851 4.40632 17.8439C4.5258 17.8369 4.64255 17.8053 4.74937 17.7513C4.85618 17.6973 4.95077 17.6219 5.02729 17.5299C5.10382 17.4379 5.16065 17.3311 5.19427 17.2163C5.22489 17.1323 5.26844 17.0537 5.32333 16.9833C5.47768 16.791 5.70025 16.6656 5.94471 16.6332C6.18918 16.6008 6.43672 16.6639 6.63583 16.8094C6.73161 16.8771 6.81261 16.9636 6.87391 17.0637C6.9352 17.1637 6.97552 17.2752 6.99239 17.3913C7.00783 17.5028 7.00057 17.6162 6.97107 17.7249C6.94156 17.8335 6.8904 17.9351 6.82067 18.0234C6.81749 18.0272 6.81456 18.0313 6.81192 18.0355L3.67395 22.2267C3.57671 22.3568 3.51759 22.5114 3.50321 22.6731C3.48883 22.8349 3.51975 22.9975 3.59252 23.1427C3.66528 23.2879 3.77702 23.4099 3.91523 23.4952C4.05343 23.5805 4.21264 23.6257 4.37505 23.6256H7.87505C8.10711 23.6256 8.32967 23.5334 8.49377 23.3693C8.65786 23.2053 8.75005 22.9827 8.75005 22.7506C8.75005 22.5186 8.65786 22.296 8.49377 22.1319C8.32967 21.9678 8.10711 21.8756 7.87505 21.8756H6.12505L8.21192 19.0833C8.4235 18.8108 8.57798 18.4984 8.66611 18.1648C8.75425 17.8313 8.77424 17.4833 8.72489 17.1419Z" fill="black" fill-opacity="0.2"/>
  <path d="M24.5 14.0006C24.5 14.2327 24.4079 14.4553 24.2438 14.6193C24.0797 14.7834 23.8571 14.8756 23.625 14.8756H11.375C11.143 14.8756 10.9204 14.7834 10.7563 14.6193C10.5922 14.4553 10.5 14.2327 10.5 14.0006C10.5 13.7686 10.5922 13.546 10.7563 13.3819C10.9204 13.2178 11.143 13.1256 11.375 13.1256H23.625C23.8571 13.1256 24.0797 13.2178 24.2438 13.3819C24.4079 13.546 24.5 13.7686 24.5 14.0006ZM11.375 7.87563H23.625C23.8571 7.87563 24.0797 7.78344 24.2438 7.61934C24.4079 7.45525 24.5 7.23269 24.5 7.00063C24.5 6.76856 24.4079 6.546 24.2438 6.38191C24.0797 6.21781 23.8571 6.12563 23.625 6.12563H11.375C11.143 6.12563 10.9204 6.21781 10.7563 6.38191C10.5922 6.546 10.5 6.76856 10.5 7.00063C10.5 7.23269 10.5922 7.45525 10.7563 7.61934C10.9204 7.78344 11.143 7.87563 11.375 7.87563ZM23.625 20.1256H11.375C11.143 20.1256 10.9204 20.2178 10.7563 20.3819C10.5922 20.546 10.5 20.7686 10.5 21.0006C10.5 21.2327 10.5922 21.4553 10.7563 21.6193C10.9204 21.7834 11.143 21.8756 11.375 21.8756H23.625C23.8571 21.8756 24.0797 21.7834 24.2438 21.6193C24.4079 21.4553 24.5 21.2327 24.5 21.0006C24.5 20.7686 24.4079 20.546 24.2438 20.3819C24.0797 20.2178 23.8571 20.1256 23.625 20.1256ZM4.76661 6.03375L5.25005 5.79094V11.3756C5.25005 11.6077 5.34224 11.8303 5.50633 11.9943C5.67042 12.1584 5.89298 12.2506 6.12505 12.2506C6.35711 12.2506 6.57967 12.1584 6.74377 11.9943C6.90786 11.8303 7.00005 11.6077 7.00005 11.3756V4.37563C7.00016 4.2264 6.9621 4.07963 6.88949 3.94926C6.81688 3.81888 6.71214 3.70925 6.58521 3.63077C6.45829 3.55229 6.3134 3.50758 6.16432 3.50088C6.01525 3.49418 5.86694 3.52572 5.73349 3.5925L3.98349 4.4675C3.77579 4.57135 3.61785 4.75345 3.54442 4.97375C3.50806 5.08283 3.49354 5.198 3.50169 5.31269C3.50984 5.42739 3.5405 5.53935 3.59192 5.64219C3.64334 5.74503 3.71452 5.83674 3.80138 5.91207C3.88824 5.98741 3.98909 6.0449 4.09817 6.08126C4.31847 6.15469 4.55891 6.1376 4.76661 6.03375ZM8.72489 17.1419C8.67651 16.7953 8.55855 16.4621 8.37811 16.1623C8.19767 15.8626 7.95847 15.6023 7.67489 15.3973C7.10692 14.9849 6.40145 14.8081 5.7061 14.9039C5.01074 14.9997 4.37938 15.3607 3.94411 15.9114C3.77775 16.125 3.64599 16.3635 3.55364 16.618C3.50542 16.7275 3.48019 16.8458 3.47951 16.9655C3.47882 17.0852 3.5027 17.2037 3.54967 17.3138C3.59664 17.4239 3.66569 17.5232 3.75256 17.6055C3.83943 17.6879 3.94227 17.7515 4.05472 17.7925C4.16717 17.8335 4.28683 17.851 4.40632 17.8439C4.5258 17.8369 4.64255 17.8053 4.74937 17.7513C4.85618 17.6973 4.95077 17.6219 5.02729 17.5299C5.10382 17.4379 5.16065 17.3311 5.19427 17.2163C5.22489 17.1323 5.26844 17.0537 5.32333 16.9833C5.47768 16.791 5.70025 16.6656 5.94471 16.6332C6.18918 16.6008 6.43672 16.6639 6.63583 16.8094C6.73161 16.8771 6.81261 16.9636 6.87391 17.0637C6.9352 17.1637 6.97552 17.2752 6.99239 17.3913C7.00783 17.5028 7.00057 17.6162 6.97107 17.7249C6.94156 17.8335 6.8904 17.9351 6.82067 18.0234C6.81749 18.0272 6.81456 18.0313 6.81192 18.0355L3.67395 22.2267C3.57671 22.3568 3.51759 22.5114 3.50321 22.6731C3.48883 22.8349 3.51975 22.9975 3.59252 23.1427C3.66528 23.2879 3.77702 23.4099 3.91523 23.4952C4.05343 23.5805 4.21264 23.6257 4.37505 23.6256H7.87505C8.10711 23.6256 8.32967 23.5334 8.49377 23.3693C8.65786 23.2053 8.75005 22.9827 8.75005 22.7506C8.75005 22.5186 8.65786 22.296 8.49377 22.1319C8.32967 21.9678 8.10711 21.8756 7.87505 21.8756H6.12505L8.21192 19.0833C8.4235 18.8108 8.57798 18.4984 8.66611 18.1648C8.75425 17.8313 8.77424 17.4833 8.72489 17.1419Z" fill="black" fill-opacity="0.2"/>
</svg>