<svg xmlns="http://www.w3.org/2000/svg" width="100%" height="100%" viewBox="0 0 28 28" >
    <path d="M14 12.25C13.2646 12.2502 12.5538 12.5151 11.9975 12.9963C11.4413 13.4774 11.0768 14.1426 10.9706 14.8703C10.8644 15.5981 11.0237 16.3397 11.4193 16.9597C11.8148 17.5797 12.4203 18.0367 13.125 18.247V20.125C13.125 20.3571 13.2172 20.5796 13.3813 20.7437C13.5454 20.9078 13.7679 21 14 21C14.2321 21 14.4546 20.9078 14.6187 20.7437C14.7828 20.5796 14.875 20.3571 14.875 20.125V18.247C15.5797 18.0367 16.1852 17.5797 16.5807 16.9597C16.9763 16.3397 17.1356 15.5981 17.0294 14.8703C16.9232 14.1426 16.5587 13.4774 16.0025 12.9963C15.4462 12.5151 14.7354 12.2502 14 12.25ZM14 16.625C13.7404 16.625 13.4867 16.548 13.2708 16.4038C13.055 16.2596 12.8867 16.0546 12.7874 15.8148C12.6881 15.5749 12.6621 15.311 12.7127 15.0564C12.7634 14.8018 12.8884 14.568 13.0719 14.3844C13.2555 14.2009 13.4893 14.0759 13.7439 14.0252C13.9985 13.9746 14.2624 14.0006 14.5023 14.0999C14.7421 14.1992 14.9471 14.3675 15.0913 14.5833C15.2355 14.7992 15.3125 15.0529 15.3125 15.3125C15.3125 15.6606 15.1742 15.9944 14.9281 16.2406C14.6819 16.4867 14.3481 16.625 14 16.625ZM22.75 8.75H19.25V6.125C19.25 4.73261 18.6969 3.39726 17.7123 2.41269C16.7277 1.42812 15.3924 0.875 14 0.875C12.6076 0.875 11.2723 1.42812 10.2877 2.41269C9.30312 3.39726 8.75 4.73261 8.75 6.125V8.75H5.25C4.78587 8.75 4.34075 8.93437 4.01256 9.26256C3.68437 9.59075 3.5 10.0359 3.5 10.5V22.75C3.5 23.2141 3.68437 23.6592 4.01256 23.9874C4.34075 24.3156 4.78587 24.5 5.25 24.5H22.75C23.2141 24.5 23.6592 24.3156 23.9874 23.9874C24.3156 23.6592 24.5 23.2141 24.5 22.75V10.5C24.5 10.0359 24.3156 9.59075 23.9874 9.26256C23.6592 8.93437 23.2141 8.75 22.75 8.75ZM10.5 6.125C10.5 5.19674 10.8687 4.3065 11.5251 3.65013C12.1815 2.99375 13.0717 2.625 14 2.625C14.9283 2.625 15.8185 2.99375 16.4749 3.65013C17.1313 4.3065 17.5 5.19674 17.5 6.125V8.75H10.5V6.125ZM22.75 22.75H5.25V10.5H22.75V22.75Z" />
</svg>