<svg xmlns="http://www.w3.org/2000/svg"  viewBox="0 0 48 48" fill="none">
  <path fill-rule="evenodd" clip-rule="evenodd" d="M23.04 36.096C30.2506 36.096 36.096 30.2506 36.096 23.04C36.096 15.8294 30.2506 9.984 23.04 9.984C15.8294 9.984 9.984 15.8294 9.984 23.04C9.984 30.2506 15.8294 36.096 23.04 36.096ZM23.04 46.08C35.7646 46.08 46.08 35.7646 46.08 23.04C46.08 10.3154 35.7646 0 23.04 0C10.3154 0 0 10.3154 0 23.04C0 35.7646 10.3154 46.08 23.04 46.08Z" fill="#6938EF"/>
  <path d="M23.304 23.5447C25.7034 21.1453 29.5935 21.1453 31.9929 23.5447L43.9402 35.4919C46.3396 37.8913 46.3396 41.7815 43.9402 44.1809C41.5408 46.5803 37.6506 46.5803 35.2512 44.1809L23.304 32.2336C20.9046 29.8342 20.9046 25.944 23.304 23.5447Z" fill="#F670C7"/>
  <path d="M26.6582 35.5887L34.246 43.1765C37.8855 41.1467 40.9177 38.1588 43.0014 34.554L35.4757 27.0283C34.1538 31.1539 30.8358 34.3862 26.6582 35.5887Z" fill="#6519BA"/>
</svg>