<svg xmlns="http://www.w3.org/2000/svg"  viewBox="0 0 97 20" fill="none">
  <path d="M16.7483 18.1857C16.2743 18.7764 15.6958 19.2264 15.0128 19.5359C14.3437 19.8453 13.6049 20 12.7964 20C11.7092 20 10.7264 19.7609 9.84823 19.2827C8.97005 18.8186 7.96641 17.9888 6.83731 16.7933C5.51306 16.6245 4.32821 16.1955 3.28274 15.5063C2.25122 14.8172 1.44273 13.9311 0.857277 12.8481C0.285759 11.7511 0 10.5415 0 9.21941C0 7.77075 0.341517 6.46976 1.02455 5.31646C1.72152 4.14909 2.67638 3.23488 3.88911 2.57384C5.11578 1.9128 6.48882 1.58228 8.00822 1.58228C9.52763 1.58228 10.8937 1.9128 12.1064 2.57384C13.3192 3.23488 14.274 4.14909 14.971 5.31646C15.668 6.46976 16.0164 7.77075 16.0164 9.21941C16.0164 10.9353 15.5355 12.4402 14.5737 13.7342C13.6258 15.0281 12.3643 15.9283 10.7891 16.4346C11.1376 16.8003 11.4722 17.0605 11.7928 17.2152C12.1273 17.384 12.4828 17.4684 12.8592 17.4684C13.7652 17.4684 14.5598 17.1027 15.2428 16.3713L16.7483 18.1857ZM3.42911 9.21941C3.42911 10.1336 3.62426 10.9494 4.01457 11.6667C4.41881 12.384 4.96942 12.9466 5.66639 13.3544C6.36337 13.7482 7.14398 13.9451 8.00822 13.9451C8.87247 13.9451 9.65308 13.7482 10.3501 13.3544C11.047 12.9466 11.5907 12.384 11.981 11.6667C12.3852 10.9494 12.5873 10.1336 12.5873 9.21941C12.5873 8.3052 12.3852 7.48945 11.981 6.77215C11.5907 6.05485 11.047 5.4993 10.3501 5.10549C9.65308 4.69761 8.87247 4.49367 8.00822 4.49367C7.14398 4.49367 6.36337 4.69761 5.66639 5.10549C4.96942 5.4993 4.41881 6.05485 4.01457 6.77215C3.62426 7.48945 3.42911 8.3052 3.42911 9.21941Z" fill="#101828"/>
  <path d="M29.6649 5.25317V16.6034H26.5704V15.2532C26.1382 15.7454 25.6225 16.1252 25.0231 16.3924C24.4237 16.6456 23.7755 16.7722 23.0785 16.7722C21.6009 16.7722 20.43 16.3432 19.5658 15.4852C18.7015 14.6273 18.2694 13.3544 18.2694 11.6667V5.25317H21.5312V11.1814C21.5312 13.0098 22.291 13.9241 23.8104 13.9241C24.591 13.9241 25.2182 13.6709 25.6922 13.1646C26.1661 12.6442 26.4031 11.8776 26.4031 10.865V5.25317H29.6649Z" fill="#101828"/>
  <path d="M38.0396 16.7722C36.8547 16.7722 35.7883 16.526 34.8404 16.0338C33.9065 15.5274 33.1747 14.8312 32.645 13.9451C32.1153 13.0591 31.8504 12.0534 31.8504 10.9283C31.8504 9.80309 32.1153 8.79747 32.645 7.91139C33.1747 7.02532 33.9065 6.33615 34.8404 5.84388C35.7883 5.33755 36.8547 5.08439 38.0396 5.08439C39.2244 5.08439 40.2838 5.33755 41.2178 5.84388C42.1517 6.33615 42.8835 7.02532 43.4132 7.91139C43.9429 8.79747 44.2078 9.80309 44.2078 10.9283C44.2078 12.0534 43.9429 13.0591 43.4132 13.9451C42.8835 14.8312 42.1517 15.5274 41.2178 16.0338C40.2838 16.526 39.2244 16.7722 38.0396 16.7722ZM38.0396 14.0717C38.8759 14.0717 39.559 13.7904 40.0887 13.2278C40.6323 12.6512 40.9041 11.8847 40.9041 10.9283C40.9041 9.97187 40.6323 9.21238 40.0887 8.64979C39.559 8.07314 38.8759 7.78481 38.0396 7.78481C37.2032 7.78481 36.5132 8.07314 35.9695 8.64979C35.4259 9.21238 35.1541 9.97187 35.1541 10.9283C35.1541 11.8847 35.4259 12.6512 35.9695 13.2278C36.5132 13.7904 37.2032 14.0717 38.0396 14.0717Z" fill="#101828"/>
  <path d="M53.6435 16.0549C53.3229 16.294 52.9256 16.4768 52.4517 16.6034C51.9917 16.7159 51.5038 16.7722 50.9881 16.7722C49.6499 16.7722 48.6114 16.4276 47.8726 15.7384C47.1477 15.0492 46.7853 14.0366 46.7853 12.7004V8.03798H45.0499V5.50633H46.7853V2.74262H50.0471V5.50633H52.849V8.03798H50.0471V12.6582C50.0471 13.1364 50.1656 13.5091 50.4026 13.7764C50.6535 14.0295 51.002 14.1561 51.4481 14.1561C51.9638 14.1561 52.4029 14.0155 52.7653 13.7342L53.6435 16.0549Z" fill="#101828"/>
  <path d="M55.4746 5.25317H58.7364V16.6034H55.4746V5.25317ZM57.1055 3.67089C56.5061 3.67089 56.0182 3.49508 55.6418 3.14346C55.2655 2.79184 55.0773 2.35584 55.0773 1.83544C55.0773 1.31505 55.2655 0.879044 55.6418 0.527427C56.0182 0.175809 56.5061 0 57.1055 0C57.7049 0 58.1928 0.168777 58.5691 0.50633C58.9455 0.843883 59.1337 1.26582 59.1337 1.77215C59.1337 2.32068 58.9455 2.77778 58.5691 3.14346C58.1928 3.49508 57.7049 3.67089 57.1055 3.67089Z" fill="#101828"/>
  <path d="M72.7828 10.9705C72.7828 11.0127 72.7619 11.308 72.7201 11.8565H64.21C64.3634 12.5598 64.7258 13.1153 65.2973 13.5232C65.8688 13.9311 66.5797 14.135 67.4301 14.135C68.0155 14.135 68.5313 14.0506 68.9773 13.8819C69.4373 13.699 69.8625 13.4177 70.2528 13.038L71.9883 14.9367C70.9289 16.1603 69.3816 16.7722 67.3464 16.7722C66.0779 16.7722 64.9558 16.526 63.98 16.0338C63.0043 15.5274 62.2515 14.8312 61.7218 13.9451C61.1921 13.0591 60.9273 12.0534 60.9273 10.9283C60.9273 9.81716 61.1852 8.81857 61.7009 7.93249C62.2306 7.03235 62.9485 6.33615 63.8546 5.84388C64.7746 5.33755 65.7991 5.08439 66.9282 5.08439C68.0294 5.08439 69.0261 5.32349 69.9182 5.80169C70.8104 6.27989 71.5073 6.96906 72.0092 7.8692C72.5249 8.75527 72.7828 9.78903 72.7828 10.9705ZM66.9491 7.57384C66.2103 7.57384 65.59 7.78481 65.0882 8.20675C64.5864 8.62869 64.2797 9.20535 64.1682 9.93671H69.7091C69.5976 9.21941 69.291 8.64979 68.7891 8.22785C68.2873 7.79184 67.674 7.57384 66.9491 7.57384Z" fill="#101828"/>
  <path d="M81.7917 5.08439C83.1857 5.08439 84.3078 5.50633 85.1581 6.35021C86.0224 7.19409 86.4545 8.44585 86.4545 10.1055V16.6034H83.1926V10.6118C83.1926 9.71168 82.9975 9.0436 82.6072 8.6076C82.2169 8.15753 81.6523 7.93249 80.9135 7.93249C80.0911 7.93249 79.436 8.19269 78.9481 8.71308C78.4602 9.21941 78.2163 9.9789 78.2163 10.9916V16.6034H74.9544V5.25317H78.0699V6.58228C78.502 6.10408 79.0387 5.7384 79.6799 5.48523C80.3211 5.218 81.0251 5.08439 81.7917 5.08439Z" fill="#101828"/>
  <path d="M96.6667 16.0549C96.3461 16.294 95.9488 16.4768 95.4748 16.6034C95.0148 16.7159 94.527 16.7722 94.0112 16.7722C92.673 16.7722 91.6345 16.4276 90.8957 15.7384C90.1709 15.0492 89.8084 14.0366 89.8084 12.7004V8.03798H88.073V5.50633H89.8084V2.74262H93.0703V5.50633H95.8721V8.03798H93.0703V12.6582C93.0703 13.1364 93.1888 13.5091 93.4257 13.7764C93.6766 14.0295 94.0251 14.1561 94.4712 14.1561C94.987 14.1561 95.4261 14.0155 95.7885 13.7342L96.6667 16.0549Z" fill="#101828"/>
</svg>