<svg xmlns="http://www.w3.org/2000/svg" width="100%" height="100%" viewBox="0 0 24 24" fill="none">
<path d="M13.5006 20.25C13.5006 20.4489 13.5796 20.6397 13.7203 20.7803C13.8609 20.921 14.0517 21 14.2506 21H19.5006C19.8984 21 20.28 20.842 20.5613 20.5607C20.8426 20.2794 21.0006 19.8978 21.0006 19.5V4.5C21.0006 4.10218 20.8426 3.72064 20.5613 3.43934C20.28 3.15804 19.8984 3 19.5006 3H14.2506C14.0517 3 13.8609 3.07902 13.7203 3.21967C13.5796 3.36032 13.5006 3.55109 13.5006 3.75C13.5006 3.94891 13.5796 4.13968 13.7203 4.28033C13.8609 4.42098 14.0517 4.5 14.2506 4.5H19.5006V19.5H14.2506C14.0517 19.5 13.8609 19.579 13.7203 19.7197C13.5796 19.8603 13.5006 20.0511 13.5006 20.25ZM3.21999 11.4694L6.96999 7.71937C7.11072 7.57864 7.30159 7.49958 7.50061 7.49958C7.69963 7.49958 7.8905 7.57864 8.03124 7.71937C8.17197 7.86011 8.25103 8.05098 8.25103 8.25C8.25103 8.44902 8.17197 8.63989 8.03124 8.78063L5.56092 11.25H14.2506C14.4495 11.25 14.6403 11.329 14.7809 11.4697C14.9216 11.6103 15.0006 11.8011 15.0006 12C15.0006 12.1989 14.9216 12.3897 14.7809 12.5303C14.6403 12.671 14.4495 12.75 14.2506 12.75H5.56092L8.03124 15.2194C8.17197 15.3601 8.25103 15.551 8.25103 15.75C8.25103 15.949 8.17197 16.1399 8.03124 16.2806C7.8905 16.4214 7.69963 16.5004 7.50061 16.5004C7.30159 16.5004 7.11072 16.4214 6.96999 16.2806L3.21999 12.5306C3.15025 12.461 3.09493 12.3783 3.05719 12.2872C3.01945 12.1962 3.00002 12.0986 3.00002 12C3.00002 11.9014 3.01945 11.8038 3.05719 11.7128C3.09493 11.6217 3.15025 11.539 3.21999 11.4694Z" fill="#C72929"/>
</svg>