<svg xmlns="http://www.w3.org/2000/svg" width="100%" height="100%" viewBox="0 0 28 28" fill="none">
<path d="M23.625 5.25H4.37503C3.9109 5.25 3.46578 5.43437 3.13759 5.76256C2.8094 6.09075 2.62503 6.53587 2.62503 7V24.5C2.62305 24.8336 2.71735 25.1606 2.89661 25.4419C3.07587 25.7232 3.33248 25.9468 3.63566 26.0859C3.86733 26.1935 4.1196 26.2495 4.37503 26.25C4.78585 26.249 5.18304 26.1025 5.49612 25.8366C5.50134 25.8332 5.50612 25.8291 5.51034 25.8245L9.02347 22.75H23.625C24.0892 22.75 24.5343 22.5656 24.8625 22.2374C25.1907 21.9092 25.375 21.4641 25.375 21V7C25.375 6.53587 25.1907 6.09075 24.8625 5.76256C24.5343 5.43437 24.0892 5.25 23.625 5.25ZM23.625 21H9.02347C8.61137 20.9998 8.21242 21.1451 7.89691 21.4102L7.88378 21.4222L4.37503 24.5V7H23.625V21ZM9.62503 12.25C9.62503 12.0179 9.71722 11.7954 9.88131 11.6313C10.0454 11.4672 10.268 11.375 10.5 11.375H17.5C17.7321 11.375 17.9547 11.4672 18.1187 11.6313C18.2828 11.7954 18.375 12.0179 18.375 12.25C18.375 12.4821 18.2828 12.7046 18.1187 12.8687C17.9547 13.0328 17.7321 13.125 17.5 13.125H10.5C10.268 13.125 10.0454 13.0328 9.88131 12.8687C9.71722 12.7046 9.62503 12.4821 9.62503 12.25ZM9.62503 15.75C9.62503 15.5179 9.71722 15.2954 9.88131 15.1313C10.0454 14.9672 10.268 14.875 10.5 14.875H17.5C17.7321 14.875 17.9547 14.9672 18.1187 15.1313C18.2828 15.2954 18.375 15.5179 18.375 15.75C18.375 15.9821 18.2828 16.2046 18.1187 16.3687C17.9547 16.5328 17.7321 16.625 17.5 16.625H10.5C10.268 16.625 10.0454 16.5328 9.88131 16.3687C9.71722 16.2046 9.62503 15.9821 9.62503 15.75Z" fill="#0C1228"/>
<path d="M23.625 5.25H4.37503C3.9109 5.25 3.46578 5.43437 3.13759 5.76256C2.8094 6.09075 2.62503 6.53587 2.62503 7V24.5C2.62305 24.8336 2.71735 25.1606 2.89661 25.4419C3.07587 25.7232 3.33248 25.9468 3.63566 26.0859C3.86733 26.1935 4.1196 26.2495 4.37503 26.25C4.78585 26.249 5.18304 26.1025 5.49612 25.8366C5.50134 25.8332 5.50612 25.8291 5.51034 25.8245L9.02347 22.75H23.625C24.0892 22.75 24.5343 22.5656 24.8625 22.2374C25.1907 21.9092 25.375 21.4641 25.375 21V7C25.375 6.53587 25.1907 6.09075 24.8625 5.76256C24.5343 5.43437 24.0892 5.25 23.625 5.25ZM23.625 21H9.02347C8.61137 20.9998 8.21242 21.1451 7.89691 21.4102L7.88378 21.4222L4.37503 24.5V7H23.625V21ZM9.62503 12.25C9.62503 12.0179 9.71722 11.7954 9.88131 11.6313C10.0454 11.4672 10.268 11.375 10.5 11.375H17.5C17.7321 11.375 17.9547 11.4672 18.1187 11.6313C18.2828 11.7954 18.375 12.0179 18.375 12.25C18.375 12.4821 18.2828 12.7046 18.1187 12.8687C17.9547 13.0328 17.7321 13.125 17.5 13.125H10.5C10.268 13.125 10.0454 13.0328 9.88131 12.8687C9.71722 12.7046 9.62503 12.4821 9.62503 12.25ZM9.62503 15.75C9.62503 15.5179 9.71722 15.2954 9.88131 15.1313C10.0454 14.9672 10.268 14.875 10.5 14.875H17.5C17.7321 14.875 17.9547 14.9672 18.1187 15.1313C18.2828 15.2954 18.375 15.5179 18.375 15.75C18.375 15.9821 18.2828 16.2046 18.1187 16.3687C17.9547 16.5328 17.7321 16.625 17.5 16.625H10.5C10.268 16.625 10.0454 16.5328 9.88131 16.3687C9.71722 16.2046 9.62503 15.9821 9.62503 15.75Z" fill="black" fill-opacity="0.2"/>
<path d="M23.625 5.25H4.37503C3.9109 5.25 3.46578 5.43437 3.13759 5.76256C2.8094 6.09075 2.62503 6.53587 2.62503 7V24.5C2.62305 24.8336 2.71735 25.1606 2.89661 25.4419C3.07587 25.7232 3.33248 25.9468 3.63566 26.0859C3.86733 26.1935 4.1196 26.2495 4.37503 26.25C4.78585 26.249 5.18304 26.1025 5.49612 25.8366C5.50134 25.8332 5.50612 25.8291 5.51034 25.8245L9.02347 22.75H23.625C24.0892 22.75 24.5343 22.5656 24.8625 22.2374C25.1907 21.9092 25.375 21.4641 25.375 21V7C25.375 6.53587 25.1907 6.09075 24.8625 5.76256C24.5343 5.43437 24.0892 5.25 23.625 5.25ZM23.625 21H9.02347C8.61137 20.9998 8.21242 21.1451 7.89691 21.4102L7.88378 21.4222L4.37503 24.5V7H23.625V21ZM9.62503 12.25C9.62503 12.0179 9.71722 11.7954 9.88131 11.6313C10.0454 11.4672 10.268 11.375 10.5 11.375H17.5C17.7321 11.375 17.9547 11.4672 18.1187 11.6313C18.2828 11.7954 18.375 12.0179 18.375 12.25C18.375 12.4821 18.2828 12.7046 18.1187 12.8687C17.9547 13.0328 17.7321 13.125 17.5 13.125H10.5C10.268 13.125 10.0454 13.0328 9.88131 12.8687C9.71722 12.7046 9.62503 12.4821 9.62503 12.25ZM9.62503 15.75C9.62503 15.5179 9.71722 15.2954 9.88131 15.1313C10.0454 14.9672 10.268 14.875 10.5 14.875H17.5C17.7321 14.875 17.9547 14.9672 18.1187 15.1313C18.2828 15.2954 18.375 15.5179 18.375 15.75C18.375 15.9821 18.2828 16.2046 18.1187 16.3687C17.9547 16.5328 17.7321 16.625 17.5 16.625H10.5C10.268 16.625 10.0454 16.5328 9.88131 16.3687C9.71722 16.2046 9.62503 15.9821 9.62503 15.75Z" fill="black" fill-opacity="0.2"/>
</svg>