<svg xmlns="http://www.w3.org/2000/svg" width="100%" height="100%" viewBox="0 0 28 28" fill="none">
<path d="M25.1191 6.38163L21.6191 2.88163C21.5378 2.80027 21.4413 2.73573 21.3351 2.6917C21.2288 2.64766 21.115 2.625 21 2.625C20.885 2.625 20.7711 2.64766 20.6649 2.6917C20.5587 2.73573 20.4622 2.80027 20.3809 2.88163L9.88094 13.3816C9.79971 13.4629 9.73529 13.5595 9.69138 13.6657C9.64747 13.7719 9.62491 13.8857 9.625 14.0007V17.5007C9.625 17.7328 9.71719 17.9553 9.88128 18.1194C10.0454 18.2835 10.2679 18.3757 10.5 18.3757H14C14.1149 18.3758 14.2288 18.3532 14.335 18.3093C14.4412 18.2654 14.5377 18.201 14.6191 18.1197L25.1191 7.61975C25.2004 7.53849 25.265 7.44198 25.309 7.33576C25.353 7.22954 25.3757 7.11568 25.3757 7.00069C25.3757 6.8857 25.353 6.77184 25.309 6.66562C25.265 6.55939 25.2004 6.46289 25.1191 6.38163ZM13.638 16.6257H11.375V14.3627L18.375 7.36272L20.638 9.62569L13.638 16.6257ZM21.875 8.38866L19.612 6.12569L21 4.73772L23.263 7.00069L21.875 8.38866ZM24.5 13.1257V22.7507C24.5 23.2148 24.3156 23.6599 23.9874 23.9881C23.6592 24.3163 23.2141 24.5007 22.75 24.5007H5.25C4.78587 24.5007 4.34075 24.3163 4.01256 23.9881C3.68437 23.6599 3.5 23.2148 3.5 22.7507V5.25069C3.5 4.78656 3.68437 4.34144 4.01256 4.01325C4.34075 3.68506 4.78587 3.50069 5.25 3.50069H14.875C15.1071 3.50069 15.3296 3.59288 15.4937 3.75697C15.6578 3.92106 15.75 4.14362 15.75 4.37569C15.75 4.60775 15.6578 4.83031 15.4937 4.99441C15.3296 5.1585 15.1071 5.25069 14.875 5.25069H5.25V22.7507H22.75V13.1257C22.75 12.8936 22.8422 12.6711 23.0063 12.507C23.1704 12.3429 23.3929 12.2507 23.625 12.2507C23.8571 12.2507 24.0796 12.3429 24.2437 12.507C24.4078 12.6711 24.5 12.8936 24.5 13.1257Z" fill="#0C1228"/>
<path d="M25.1191 6.38163L21.6191 2.88163C21.5378 2.80027 21.4413 2.73573 21.3351 2.6917C21.2288 2.64766 21.115 2.625 21 2.625C20.885 2.625 20.7711 2.64766 20.6649 2.6917C20.5587 2.73573 20.4622 2.80027 20.3809 2.88163L9.88094 13.3816C9.79971 13.4629 9.73529 13.5595 9.69138 13.6657C9.64747 13.7719 9.62491 13.8857 9.625 14.0007V17.5007C9.625 17.7328 9.71719 17.9553 9.88128 18.1194C10.0454 18.2835 10.2679 18.3757 10.5 18.3757H14C14.1149 18.3758 14.2288 18.3532 14.335 18.3093C14.4412 18.2654 14.5377 18.201 14.6191 18.1197L25.1191 7.61975C25.2004 7.53849 25.265 7.44198 25.309 7.33576C25.353 7.22954 25.3757 7.11568 25.3757 7.00069C25.3757 6.8857 25.353 6.77184 25.309 6.66562C25.265 6.55939 25.2004 6.46289 25.1191 6.38163ZM13.638 16.6257H11.375V14.3627L18.375 7.36272L20.638 9.62569L13.638 16.6257ZM21.875 8.38866L19.612 6.12569L21 4.73772L23.263 7.00069L21.875 8.38866ZM24.5 13.1257V22.7507C24.5 23.2148 24.3156 23.6599 23.9874 23.9881C23.6592 24.3163 23.2141 24.5007 22.75 24.5007H5.25C4.78587 24.5007 4.34075 24.3163 4.01256 23.9881C3.68437 23.6599 3.5 23.2148 3.5 22.7507V5.25069C3.5 4.78656 3.68437 4.34144 4.01256 4.01325C4.34075 3.68506 4.78587 3.50069 5.25 3.50069H14.875C15.1071 3.50069 15.3296 3.59288 15.4937 3.75697C15.6578 3.92106 15.75 4.14362 15.75 4.37569C15.75 4.60775 15.6578 4.83031 15.4937 4.99441C15.3296 5.1585 15.1071 5.25069 14.875 5.25069H5.25V22.7507H22.75V13.1257C22.75 12.8936 22.8422 12.6711 23.0063 12.507C23.1704 12.3429 23.3929 12.2507 23.625 12.2507C23.8571 12.2507 24.0796 12.3429 24.2437 12.507C24.4078 12.6711 24.5 12.8936 24.5 13.1257Z" fill="black" fill-opacity="0.2"/>
<path d="M25.1191 6.38163L21.6191 2.88163C21.5378 2.80027 21.4413 2.73573 21.3351 2.6917C21.2288 2.64766 21.115 2.625 21 2.625C20.885 2.625 20.7711 2.64766 20.6649 2.6917C20.5587 2.73573 20.4622 2.80027 20.3809 2.88163L9.88094 13.3816C9.79971 13.4629 9.73529 13.5595 9.69138 13.6657C9.64747 13.7719 9.62491 13.8857 9.625 14.0007V17.5007C9.625 17.7328 9.71719 17.9553 9.88128 18.1194C10.0454 18.2835 10.2679 18.3757 10.5 18.3757H14C14.1149 18.3758 14.2288 18.3532 14.335 18.3093C14.4412 18.2654 14.5377 18.201 14.6191 18.1197L25.1191 7.61975C25.2004 7.53849 25.265 7.44198 25.309 7.33576C25.353 7.22954 25.3757 7.11568 25.3757 7.00069C25.3757 6.8857 25.353 6.77184 25.309 6.66562C25.265 6.55939 25.2004 6.46289 25.1191 6.38163ZM13.638 16.6257H11.375V14.3627L18.375 7.36272L20.638 9.62569L13.638 16.6257ZM21.875 8.38866L19.612 6.12569L21 4.73772L23.263 7.00069L21.875 8.38866ZM24.5 13.1257V22.7507C24.5 23.2148 24.3156 23.6599 23.9874 23.9881C23.6592 24.3163 23.2141 24.5007 22.75 24.5007H5.25C4.78587 24.5007 4.34075 24.3163 4.01256 23.9881C3.68437 23.6599 3.5 23.2148 3.5 22.7507V5.25069C3.5 4.78656 3.68437 4.34144 4.01256 4.01325C4.34075 3.68506 4.78587 3.50069 5.25 3.50069H14.875C15.1071 3.50069 15.3296 3.59288 15.4937 3.75697C15.6578 3.92106 15.75 4.14362 15.75 4.37569C15.75 4.60775 15.6578 4.83031 15.4937 4.99441C15.3296 5.1585 15.1071 5.25069 14.875 5.25069H5.25V22.7507H22.75V13.1257C22.75 12.8936 22.8422 12.6711 23.0063 12.507C23.1704 12.3429 23.3929 12.2507 23.625 12.2507C23.8571 12.2507 24.0796 12.3429 24.2437 12.507C24.4078 12.6711 24.5 12.8936 24.5 13.1257Z" fill="black" fill-opacity="0.2"/>
</svg>