<svg xmlns="http://www.w3.org/2000/svg" viewBox="0 0 28 28" fill="none">
  <path d="M21.8316 11.8091L6.07712 2.81683C5.81156 2.66786 5.50695 2.60321 5.20377 2.63148C4.9006 2.65974 4.61319 2.77958 4.37974 2.97507C4.14629 3.17057 3.97784 3.43246 3.89678 3.72596C3.81571 4.01947 3.82586 4.33069 3.92588 4.61829L6.83296 13.1023C6.83259 13.1054 6.83259 13.1086 6.83296 13.1117C6.83244 13.1148 6.83244 13.1179 6.83296 13.121L3.92588 21.6238C3.84578 21.85 3.82112 22.0922 3.85396 22.3299C3.88681 22.5677 3.9762 22.7941 4.11465 22.9901C4.25309 23.1861 4.43654 23.3461 4.64959 23.4566C4.86265 23.5671 5.0991 23.6248 5.3391 23.625C5.59948 23.6243 5.8553 23.5565 6.08181 23.4281L21.8279 14.4208C22.0602 14.2907 22.2536 14.1011 22.3884 13.8715C22.5233 13.642 22.5946 13.3807 22.595 13.1144C22.5955 12.8482 22.5252 12.5867 22.3912 12.3566C22.2572 12.1266 22.0644 11.9363 21.8326 11.8054L21.8316 11.8091ZM5.3391 22.1246V22.1161L8.16553 13.8722H13.5915C13.7904 13.8722 13.9813 13.7932 14.122 13.6525C14.2626 13.5118 14.3417 13.321 14.3417 13.122C14.3417 12.923 14.2626 12.7322 14.122 12.5915C13.9813 12.4508 13.7904 12.3718 13.5915 12.3718H8.17304L5.34472 4.13065L5.3391 4.11939L21.0936 13.106L5.3391 22.1246Z" fill="#646570"/>
</svg>