<svg xmlns="http://www.w3.org/2000/svg"  viewBox="0 0 48 48" fill="none">
  <path d="M12 0C10.35 0 9 1.35 9 3V45C9 46.65 10.35 48 12 48H42C43.65 48 45 46.65 45 45V12L33 0H12Z" fill="#E2E5E7"/>
  <path d="M36 12H45L33 0V9C33 10.65 34.35 12 36 12Z" fill="#B0B7BD"/>
  <path d="M45 21L36 12H45V21Z" fill="#CAD1D8"/>
  <path d="M39 39C39 39.825 38.325 40.5 37.5 40.5H4.5C3.675 40.5 3 39.825 3 39V24C3 23.175 3.675 22.5 4.5 22.5H37.5C38.325 22.5 39 23.175 39 24V39Z" fill="#F15642"/>
  <path d="M9.53906 28.4198C9.53906 28.0238 9.85106 27.5918 10.3536 27.5918H13.1241C14.6841 27.5918 16.0881 28.6358 16.0881 30.6368C16.0881 32.5328 14.6841 33.5888 13.1241 33.5888H11.1216V35.1728C11.1216 35.7008 10.7856 35.9993 10.3536 35.9993C9.95756 35.9993 9.53906 35.7008 9.53906 35.1728V28.4198ZM11.1216 29.1023V32.0903H13.1241C13.9281 32.0903 14.5641 31.3808 14.5641 30.6368C14.5641 29.7983 13.9281 29.1023 13.1241 29.1023H11.1216ZM18.4371 35.9993C18.0411 35.9993 17.6091 35.7833 17.6091 35.2568V28.4438C17.6091 28.0133 18.0411 27.6998 18.4371 27.6998H21.1836C26.6646 27.6998 26.5446 35.9993 21.2916 35.9993H18.4371ZM19.1931 29.1638V34.5368H21.1836C24.4221 34.5368 24.5661 29.1638 21.1836 29.1638H19.1931ZM28.4886 29.2598V31.1663H31.5471C31.9791 31.1663 32.4111 31.5983 32.4111 32.0168C32.4111 32.4128 31.9791 32.7368 31.5471 32.7368H28.4886V35.2553C28.4886 35.6753 28.1901 35.9978 27.7701 35.9978C27.2421 35.9978 26.9196 35.6753 26.9196 35.2553V28.4423C26.9196 28.0118 27.2436 27.6983 27.7701 27.6983H31.9806C32.5086 27.6983 32.8206 28.0118 32.8206 28.4423C32.8206 28.8263 32.5086 29.2583 31.9806 29.2583H28.4886V29.2598Z" fill="white"/>
  <path d="M37.5 40.5H9V42H37.5C38.325 42 39 41.325 39 40.5V39C39 39.825 38.325 40.5 37.5 40.5Z" fill="#CAD1D8"/>
</svg>