<svg xmlns="http://www.w3.org/2000/svg"  viewBox="0 0 20 20" fill="none">
  <path d="M10.0864 13.7499C9.52526 13.749 8.9739 13.6029 8.486 13.3257C8.15241 13.1362 7.85625 12.8899 7.61021 12.599C7.42054 12.3749 7.09805 12.2876 6.84456 12.4359V12.4359C6.58681 12.5866 6.49975 12.9215 6.68472 13.1559C7.03259 13.5967 7.46394 13.9671 7.95591 14.2449C8.60599 14.6119 9.33986 14.8048 10.0864 14.8048C10.8329 14.8048 11.5668 14.6119 12.2169 14.2449C12.7088 13.9671 13.1402 13.5967 13.4881 13.1559C13.673 12.9215 13.586 12.5866 13.3282 12.4359V12.4359C13.0747 12.2876 12.7522 12.3749 12.5626 12.599C12.3165 12.8899 12.0204 13.1362 11.6868 13.3257C11.1989 13.6029 10.6475 13.749 10.0864 13.7499Z" fill="#646570"/>
  <path d="M17.6696 4.54183C17.6696 4.24267 17.4271 4.00016 17.1279 4.00016H15.5029V2.37516C15.5029 2.07601 15.2604 1.8335 14.9613 1.8335V1.8335C14.6621 1.8335 14.4196 2.07601 14.4196 2.37516V4.00016H12.7946C12.4954 4.00016 12.2529 4.24267 12.2529 4.54183V4.54183C12.2529 4.84098 12.4954 5.0835 12.7946 5.0835H14.4196V6.7085C14.4196 7.00765 14.6621 7.25016 14.9613 7.25016V7.25016C15.2604 7.25016 15.5029 7.00765 15.5029 6.7085V5.0835H17.1279C17.4271 5.0835 17.6696 4.84098 17.6696 4.54183V4.54183Z" fill="#646570"/>
  <path d="M7.64811 7.79179C7.38028 7.79179 7.11847 7.87121 6.89578 8.02001C6.67309 8.16881 6.49952 8.3803 6.39703 8.62774C6.29453 8.87518 6.26772 9.14746 6.31997 9.41014C6.37222 9.67283 6.50119 9.91411 6.69057 10.1035C6.87996 10.2929 7.12124 10.4219 7.38393 10.4741C7.64661 10.5264 7.91889 10.4995 8.16633 10.397C8.41377 10.2946 8.62526 10.121 8.77406 9.89829C8.92286 9.6756 9.00228 9.41379 9.00228 9.14596C9.00372 8.96772 8.96968 8.79099 8.90214 8.62604C8.8346 8.46109 8.7349 8.31124 8.60887 8.1852C8.48284 8.05917 8.33298 7.95947 8.16803 7.89193C8.00309 7.82439 7.82635 7.79035 7.64811 7.79179Z" fill="#646570"/>
  <path d="M12.5241 7.7913C12.2563 7.7913 11.9944 7.87072 11.7718 8.01952C11.5491 8.16832 11.3755 8.37981 11.273 8.62725C11.1705 8.87469 11.1437 9.14697 11.1959 9.40966C11.2482 9.67234 11.3772 9.91363 11.5665 10.103C11.7559 10.2924 11.9972 10.4214 12.2599 10.4736C12.5226 10.5259 12.7949 10.4991 13.0423 10.3966C13.2897 10.2941 13.5012 10.1205 13.65 9.8978C13.7988 9.67511 13.8783 9.4133 13.8783 9.14547C13.8797 8.96724 13.8457 8.7905 13.7781 8.62555C13.7106 8.4606 13.6109 8.31075 13.4848 8.18471C13.3588 8.05868 13.209 7.95899 13.044 7.89144C12.8791 7.8239 12.7023 7.78986 12.5241 7.7913Z" fill="#646570"/>
  <path d="M17.062 8.87484C16.7139 8.87484 16.4599 9.20383 16.5117 9.54809C16.5591 9.86287 16.5839 10.1809 16.5859 10.4998C16.5859 11.7854 16.2047 13.0421 15.4905 14.111C14.7763 15.18 13.7611 16.0131 12.5734 16.5051C11.3857 16.997 10.0787 17.1257 8.81784 16.8749C7.55697 16.6241 6.39878 16.0051 5.48974 15.096C4.5807 14.187 3.96163 13.0288 3.71083 11.7679C3.46002 10.507 3.58874 9.20011 4.08071 8.01239C4.57268 6.82468 5.4058 5.80951 6.47472 5.09528C7.39306 4.48167 8.45 4.11385 9.54477 4.0224C9.84294 3.99749 10.0859 3.75728 10.0859 3.45808V3.45808C10.0859 3.15895 9.84316 2.91441 9.54478 2.93565C8.16637 3.03377 6.83716 3.50713 5.70346 4.30923C4.42199 5.21587 3.45346 6.49785 2.9315 7.97829C2.40953 9.45873 2.35986 11.0647 2.78933 12.5745C3.21879 14.0844 4.10624 15.4238 5.32922 16.4079C6.5522 17.392 8.05044 17.9723 9.61723 18.0688C11.184 18.1653 12.7421 17.7732 14.0766 16.9466C15.4111 16.12 16.4562 14.8996 17.0677 13.4538C17.6234 12.1399 17.7961 10.6986 17.5705 9.29574C17.5307 9.04872 17.3122 8.87484 17.062 8.87484V8.87484Z" fill="#646570"/>
</svg>