<svg xmlns="http://www.w3.org/2000/svg"  viewBox="0 0 22 21" fill="none">
<path d="M20.9852 9.72294L16.7571 13.4129L18.0236 18.9067C18.0906 19.1939 18.0715 19.4945 17.9686 19.7709C17.8658 20.0472 17.6837 20.2872 17.4452 20.4606C17.2067 20.6341 16.9223 20.7334 16.6277 20.7462C16.3331 20.7589 16.0412 20.6845 15.7886 20.5323L10.9971 17.6261L6.2158 20.5323C5.96321 20.6845 5.67135 20.7589 5.37671 20.7462C5.08208 20.7334 4.79773 20.6341 4.55923 20.4606C4.32074 20.2872 4.13866 20.0472 4.03578 19.7709C3.9329 19.4945 3.91378 19.1939 3.9808 18.9067L5.24549 13.4186L1.01643 9.72294C0.792748 9.53002 0.631004 9.27536 0.55148 8.99089C0.471955 8.70642 0.478189 8.4048 0.569401 8.12385C0.660612 7.84291 0.832741 7.59515 1.0642 7.41164C1.29566 7.22813 1.57615 7.11705 1.87049 7.09231L7.44486 6.6095L9.6208 1.4195C9.73443 1.14717 9.9261 0.914551 10.1717 0.750929C10.4172 0.587308 10.7057 0.5 11.0008 0.5C11.2959 0.5 11.5844 0.587308 11.8299 0.750929C12.0755 0.914551 12.2672 1.14717 12.3808 1.4195L14.5633 6.6095L20.1358 7.09231C20.4301 7.11705 20.7106 7.22813 20.9421 7.41164C21.1736 7.59515 21.3457 7.84291 21.4369 8.12385C21.5281 8.4048 21.5343 8.70642 21.4548 8.99089C21.3753 9.27536 21.2135 9.53002 20.9899 9.72294H20.9852Z" fill="#573EF0"/>
</svg>