<svg xmlns="http://www.w3.org/2000/svg"  viewBox="0 0 16 16" fill="none">
  <path d="M0.241064 5.86457C0.241064 6.0255 0.308851 6.17983 0.429515 6.29362C0.55018 6.40741 0.713837 6.47133 0.884482 6.47133H15.3566C15.5272 6.47133 15.6909 6.40741 15.8115 6.29362C15.9322 6.17983 16 6.0255 16 5.86457C16 5.70365 15.9322 5.54932 15.8115 5.43553C15.6909 5.32174 15.5272 5.25781 15.3566 5.25781H0.884482C0.713837 5.25781 0.55018 5.32174 0.429515 5.43553C0.308851 5.54932 0.241064 5.70365 0.241064 5.86457Z" fill="#646570"/>
  <path d="M0.388047 6.23111C0.49088 6.35438 0.627362 6.44065 0.767469 6.47094C0.907575 6.50122 1.03983 6.47305 1.13514 6.3926L6.88486 1.53957C6.98016 1.45912 7.03072 1.333 7.0254 1.18895C7.02008 1.0449 6.95932 0.894721 6.85648 0.771446C6.75365 0.648172 6.61717 0.561903 6.47706 0.531618C6.33695 0.501332 6.2047 0.529511 6.10939 0.609955L0.359672 5.46299C0.264365 5.54343 0.213811 5.66955 0.219132 5.8136C0.224454 5.95765 0.285214 6.10784 0.388047 6.23111Z" fill="#646570"/>
  <path d="M15.7589 10.1335C15.7589 9.97255 15.6911 9.81822 15.5705 9.70443C15.4498 9.59064 15.2862 9.52671 15.1155 9.52671L0.643418 9.52671C0.472773 9.52671 0.309117 9.59064 0.188453 9.70443C0.0677887 9.81822 6.71131e-08 9.97255 5.30447e-08 10.1335C3.89764e-08 10.2944 0.0677887 10.4487 0.188453 10.5625C0.309117 10.6763 0.472773 10.7402 0.643418 10.7402L15.1155 10.7402C15.2862 10.7402 15.4498 10.6763 15.5705 10.5625C15.6911 10.4487 15.7589 10.2944 15.7589 10.1335Z" fill="#646570"/>
  <path d="M15.612 9.76889C15.5091 9.64562 15.3726 9.55935 15.2325 9.52906C15.0924 9.49878 14.9602 9.52696 14.8649 9.6074L9.11514 14.4604C9.01984 14.5409 8.96928 14.667 8.9746 14.811C8.97992 14.9551 9.04068 15.1053 9.14352 15.2286C9.24635 15.3518 9.38283 15.4381 9.52294 15.4684C9.66305 15.4987 9.7953 15.4705 9.89061 15.39L15.6403 10.537C15.7356 10.4566 15.7862 10.3304 15.7809 10.1864C15.7755 10.0423 15.7148 9.89217 15.612 9.76889Z" fill="#646570"/>
</svg>