<svg xmlns="http://www.w3.org/2000/svg"  viewBox="0 0 28 28" fill="none">
  <path d="M4.94237 10.6311C5.00791 10.604 5.07437 10.5792 5.14162 10.5566V11.1121V11.2613H4.61828H4.37773C4.23882 11.2613 4.1002 11.2641 3.96192 11.2695C4.09607 11.1412 4.24037 11.0258 4.39288 10.924C4.56636 10.8083 4.75046 10.7103 4.94237 10.6311Z" fill="#ABB0B4" stroke="#ABB0B4" stroke-width="14.2222"/>
  <path d="M27.125 0.875H0.875V2.62227H1.75273V8.75H3.5V2.62227H24.5V20.9973C24.5 21.2301 24.4075 21.4533 24.2429 21.6179C24.0783 21.7825 23.8551 21.875 23.6223 21.875H18.1016V23.6223H23.6633C24.008 23.6223 24.3493 23.5544 24.6678 23.4225C24.9863 23.2905 25.2757 23.0972 25.5194 22.8534C25.7632 22.6097 25.9565 22.3203 26.0885 22.0018C26.2204 21.6833 26.2883 21.342 26.2883 20.9973V2.62227H27.125V0.875Z" fill="#ABB0B4"/>
</svg>