<svg xmlns="http://www.w3.org/2000/svg"  viewBox="0 0 80 80" fill="none">
  <path d="M40 69.9801C56.5685 69.9801 70 56.5575 70 39.9998C70 23.4422 56.5685 10.0195 40 10.0195C23.4315 10.0195 10 23.4422 10 39.9998C10 56.5575 23.4315 69.9801 40 69.9801Z" fill="#36A785"/>
  <path d="M38.7475 54.2825C38.1213 55.186 36.8645 55.3779 35.9973 54.7022L25.9984 46.9126C24.5689 45.799 24.3129 43.7373 25.4267 42.3079C26.5404 40.8787 28.6017 40.6228 30.031 41.7362L36.1534 46.5058L48.6605 28.4581C49.6925 26.9688 51.7363 26.598 53.2257 27.6298C54.7155 28.6619 55.0864 30.7063 54.0541 32.1959L38.7475 54.2825Z" fill="white"/>
</svg>