<svg xmlns="http://www.w3.org/2000/svg" viewBox="0 0 18 18" fill="none">
  <path d="M13.0408 6.2925C13.1341 6.3854 13.208 6.4958 13.2585 6.61735C13.309 6.7389 13.335 6.86922 13.335 7.00083C13.335 7.13245 13.309 7.26277 13.2585 7.38432C13.208 7.50587 13.1341 7.61626 13.0408 7.70917L8.37417 12.3758C8.28127 12.4691 8.17087 12.543 8.04932 12.5935C7.92777 12.644 7.79745 12.67 7.66584 12.67C7.53422 12.67 7.4039 12.644 7.28235 12.5935C7.1608 12.543 7.05041 12.4691 6.9575 12.3758L4.9575 10.3758C4.86448 10.2828 4.7907 10.1724 4.74035 10.0508C4.69001 9.92931 4.6641 9.79905 4.6641 9.6675C4.6641 9.53595 4.69001 9.40569 4.74035 9.28415C4.7907 9.16261 4.86448 9.05218 4.9575 8.95916C5.05052 8.86615 5.16095 8.79236 5.28249 8.74202C5.40403 8.69167 5.53429 8.66576 5.66584 8.66576C5.79739 8.66576 5.92765 8.69167 6.04918 8.74202C6.17072 8.79236 6.28115 8.86615 6.37417 8.95916L7.66667 10.25L11.6258 6.29C11.7189 6.19719 11.8293 6.12362 11.9508 6.07351C12.0723 6.0234 12.2024 5.99773 12.3339 5.99796C12.4653 5.99819 12.5953 6.02433 12.7167 6.07487C12.838 6.1254 12.9481 6.19936 13.0408 6.2925ZM18 9C18 10.78 17.4722 12.5201 16.4832 14.0001C15.4943 15.4802 14.0887 16.6337 12.4442 17.3149C10.7996 17.9961 8.99002 18.1743 7.24419 17.8271C5.49836 17.4798 3.89471 16.6226 2.63604 15.364C1.37737 14.1053 0.520203 12.5016 0.172936 10.7558C-0.17433 9.00998 0.00389957 7.20038 0.685088 5.55585C1.36628 3.91131 2.51983 2.50571 3.99987 1.51677C5.47991 0.527841 7.21997 0 9 0C11.3861 0.00264685 13.6738 0.951708 15.361 2.63896C17.0483 4.32622 17.9974 6.61386 18 9ZM16 9C16 7.61553 15.5895 6.26215 14.8203 5.11101C14.0511 3.95986 12.9579 3.06266 11.6788 2.53284C10.3997 2.00303 8.99224 1.86441 7.63437 2.1345C6.2765 2.4046 5.02922 3.07128 4.05026 4.05025C3.07129 5.02922 2.4046 6.2765 2.13451 7.63437C1.86441 8.99223 2.00303 10.3997 2.53285 11.6788C3.06266 12.9579 3.95987 14.0511 5.11101 14.8203C6.26216 15.5895 7.61553 16 9 16C10.8559 15.998 12.6352 15.2599 13.9476 13.9476C15.2599 12.6352 15.998 10.8559 16 9Z" fill="#36A785"/>
</svg>