<svg viewBox="0 0 21 20" fill="currentColor" xmlns="http://www.w3.org/2000/svg">
<path d="M10.5 3.125C9.01664 3.125 7.5666 3.56487 6.33323 4.38898C5.09986 5.21309 4.13856 6.38443 3.57091 7.75487C3.00325 9.12532 2.85472 10.6333 3.14411 12.0882C3.4335 13.543 4.14781 14.8794 5.1967 15.9283C6.2456 16.9772 7.58197 17.6915 9.03683 17.9809C10.4917 18.2703 11.9997 18.1218 13.3701 17.5541C14.7406 16.9864 15.9119 16.0251 16.736 14.7918C17.5601 13.5584 18 12.1084 18 10.625C17.9977 8.63657 17.2068 6.73024 15.8008 5.32421C14.3948 3.91818 12.4884 3.12727 10.5 3.125ZM10.5 16.875C9.26387 16.875 8.0555 16.5084 7.02769 15.8217C5.99988 15.1349 5.1988 14.1588 4.72576 13.0168C4.25271 11.8747 4.12894 10.6181 4.3701 9.40569C4.61125 8.19331 5.20651 7.07966 6.08059 6.20558C6.95466 5.3315 8.06831 4.73625 9.28069 4.49509C10.4931 4.25393 11.7497 4.37771 12.8918 4.85075C14.0338 5.3238 15.0099 6.12488 15.6967 7.15269C16.3834 8.18049 16.75 9.38887 16.75 10.625C16.7481 12.282 16.0891 13.8707 14.9174 15.0424C13.7457 16.2141 12.157 16.8731 10.5 16.875ZM14.0672 7.05781C14.1253 7.11586 14.1714 7.18479 14.2029 7.26066C14.2343 7.33654 14.2505 7.41787 14.2505 7.5C14.2505 7.58214 14.2343 7.66346 14.2029 7.73934C14.1714 7.81521 14.1253 7.88414 14.0672 7.94219L10.9422 11.0672C10.8841 11.1253 10.8152 11.1713 10.7393 11.2027C10.6634 11.2342 10.5821 11.2503 10.5 11.2503C10.4179 11.2503 10.3366 11.2342 10.2607 11.2027C10.1848 11.1713 10.1159 11.1253 10.0578 11.0672C9.99975 11.0091 9.95368 10.9402 9.92226 10.8643C9.89083 10.7884 9.87466 10.7071 9.87466 10.625C9.87466 10.5429 9.89083 10.4616 9.92226 10.3857C9.95368 10.3098 9.99975 10.2409 10.0578 10.1828L13.1828 7.05781C13.2409 6.9997 13.3098 6.9536 13.3857 6.92215C13.4615 6.8907 13.5429 6.87451 13.625 6.87451C13.7071 6.87451 13.7885 6.8907 13.8643 6.92215C13.9402 6.9536 14.0091 6.9997 14.0672 7.05781ZM8 1.25C8 1.08424 8.06585 0.925269 8.18306 0.808058C8.30027 0.690848 8.45924 0.625 8.625 0.625H12.375C12.5408 0.625 12.6997 0.690848 12.8169 0.808058C12.9342 0.925269 13 1.08424 13 1.25C13 1.41576 12.9342 1.57473 12.8169 1.69194C12.6997 1.80915 12.5408 1.875 12.375 1.875H8.625C8.45924 1.875 8.30027 1.80915 8.18306 1.69194C8.06585 1.57473 8 1.41576 8 1.25Z" />
</svg>
