<svg xmlns="http://www.w3.org/2000/svg"  viewBox="0 0 40 40" fill="none">
  <path d="M31.2371 9.5353L17.8526 5.05746C17.6236 4.98085 17.3761 4.98085 17.1471 5.05746L3.76264 9.5353C3.54055 9.6096 3.34738 9.75216 3.2105 9.94278C3.07363 10.1334 2.99998 10.3624 3 10.5974V21.792C3 22.0889 3.11751 22.3736 3.32669 22.5836C3.53586 22.7935 3.81956 22.9114 4.11538 22.9114C4.41119 22.9114 4.69489 22.7935 4.90406 22.5836C5.11324 22.3736 5.23075 22.0889 5.23075 21.792V12.1506L9.91393 13.7165C8.66967 15.734 8.274 18.1647 8.8138 20.4748C9.3536 22.7849 10.7847 24.7856 12.793 26.0375C10.2834 27.0255 8.11399 28.8124 6.52737 31.2556C6.44486 31.3787 6.38754 31.517 6.35876 31.6626C6.32997 31.8081 6.3303 31.9579 6.35971 32.1033C6.38912 32.2487 6.44703 32.3867 6.53007 32.5095C6.61312 32.6322 6.71964 32.7371 6.84345 32.8182C6.96725 32.8992 7.10588 32.9548 7.25126 32.9816C7.39665 33.0084 7.54589 33.0059 7.69031 32.9743C7.83474 32.9427 7.97147 32.8826 8.09255 32.7975C8.21363 32.7124 8.31665 32.604 8.39563 32.4786C10.4967 29.2434 13.815 27.3893 17.4999 27.3893C21.1848 27.3893 24.503 29.2434 26.6041 32.4786C26.7677 32.7227 27.0204 32.8923 27.3076 32.9508C27.5948 33.0093 27.8934 32.952 28.1389 32.7914C28.3843 32.6307 28.5569 32.3795 28.6193 32.0921C28.6817 31.8047 28.6289 31.5042 28.4724 31.2556C26.8858 28.8124 24.708 27.0255 22.2068 26.0375C24.2131 24.7856 25.6429 22.7863 26.1826 20.4778C26.7223 18.1694 26.3279 15.7404 25.0858 13.7235L31.2371 11.6665C31.4593 11.5922 31.6525 11.4497 31.7894 11.259C31.9263 11.0684 32 10.8394 32 10.6044C32 10.3694 31.9263 10.1403 31.7894 9.94972C31.6525 9.7591 31.4593 9.61656 31.2371 9.54229V9.5353ZM24.1921 18.4336C24.1924 19.4955 23.9419 20.5423 23.461 21.4882C22.9802 22.4341 22.2827 23.252 21.4259 23.875C20.5691 24.498 19.5773 24.9082 18.532 25.0719C17.4866 25.2357 16.4175 25.1484 15.4122 24.8171C14.407 24.4858 13.4944 23.9201 12.7492 23.1663C12.004 22.4125 11.4475 21.4921 11.1254 20.4806C10.8032 19.4692 10.7246 18.3954 10.896 17.3476C11.0674 16.2997 11.4838 15.3076 12.1112 14.4525L17.1471 16.1317C17.3761 16.2083 17.6236 16.2083 17.8526 16.1317L22.8885 14.4525C23.7359 15.6056 24.1928 17.0008 24.1921 18.4336ZM17.4999 13.8956L7.64275 10.5974L17.4999 7.29917L27.357 10.5974L17.4999 13.8956Z" fill="#573EF0"/>
  <path d="M39.6339 22.1339C39.8683 21.8995 40 21.5815 40 21.25C40 20.9185 39.8683 20.6005 39.6339 20.3661C39.3995 20.1317 39.0815 20 38.75 20H36.25V17.5C36.25 17.1685 36.1183 16.8505 35.8839 16.6161C35.6495 16.3817 35.3315 16.25 35 16.25C34.6685 16.25 34.3505 16.3817 34.1161 16.6161C33.8817 16.8505 33.75 17.1685 33.75 17.5V20H31.25C30.9185 20 30.6005 20.1317 30.3661 20.3661C30.1317 20.6005 30 20.9185 30 21.25C30 21.5815 30.1317 21.8995 30.3661 22.1339C30.6005 22.3683 30.9185 22.5 31.25 22.5H33.75V25C33.75 25.3315 33.8817 25.6495 34.1161 25.8839C34.3505 26.1183 34.6685 26.25 35 26.25C35.3315 26.25 35.6495 26.1183 35.8839 25.8839C36.1183 25.6495 36.25 25.3315 36.25 25V22.5H38.75C39.0815 22.5 39.3995 22.3683 39.6339 22.1339Z" fill="#573EF0"/>
</svg>