<svg xmlns="http://www.w3.org/2000/svg" width="100%" height="100%" viewBox="0 0 24 23" >
    <path d="M23.2569 21.1875C21.5911 18.3077 19.0241 16.2427 16.0283 15.2638C17.5101 14.3816 18.6614 13.0374 19.3054 11.4376C19.9493 9.83782 20.0503 8.07086 19.5929 6.40809C19.1354 4.74532 18.1448 3.27869 16.7731 2.23343C15.4014 1.18817 13.7245 0.62207 12 0.62207C10.2754 0.62207 8.59857 1.18817 7.22689 2.23343C5.85522 3.27869 4.86458 4.74532 4.40711 6.40809C3.94965 8.07086 4.05065 9.83782 4.6946 11.4376C5.33856 13.0374 6.48986 14.3816 7.97171 15.2638C4.97593 16.2416 2.4089 18.3066 0.743116 21.1875C0.682029 21.2872 0.64151 21.398 0.623951 21.5135C0.606391 21.629 0.612146 21.7469 0.640877 21.8601C0.669607 21.9734 0.720731 22.0798 0.791232 22.1729C0.861733 22.2661 0.950182 22.3442 1.05136 22.4027C1.15254 22.4611 1.2644 22.4987 1.38034 22.5132C1.49628 22.5277 1.61396 22.5189 1.72642 22.4872C1.83888 22.4555 1.94386 22.4016 2.03515 22.3286C2.12644 22.2557 2.2022 22.1652 2.25796 22.0625C4.31858 18.5013 7.96077 16.375 12 16.375C16.0392 16.375 19.6814 18.5013 21.742 22.0625C21.7978 22.1652 21.8735 22.2557 21.9648 22.3286C22.0561 22.4016 22.1611 22.4555 22.2736 22.4872C22.386 22.5189 22.5037 22.5277 22.6196 22.5132C22.7356 22.4987 22.8474 22.4611 22.9486 22.4027C23.0498 22.3442 23.1382 22.2661 23.2087 22.1729C23.2792 22.0798 23.3304 21.9734 23.3591 21.8601C23.3878 21.7469 23.3936 21.629 23.376 21.5135C23.3585 21.398 23.318 21.2872 23.2569 21.1875ZM5.87499 8.50005C5.87499 7.28864 6.23422 6.10443 6.90724 5.09718C7.58026 4.08993 8.53686 3.30487 9.65605 2.84128C10.7753 2.3777 12.0068 2.2564 13.1949 2.49274C14.3831 2.72907 15.4744 3.31242 16.331 4.16902C17.1876 5.02561 17.771 6.11698 18.0073 7.30512C18.2436 8.49325 18.1223 9.72478 17.6588 10.844C17.1952 11.9632 16.4101 12.9198 15.4029 13.5928C14.3956 14.2658 13.2114 14.625 12 14.625C10.3761 14.6233 8.81916 13.9774 7.67088 12.8292C6.5226 11.6809 5.87673 10.124 5.87499 8.50005Z" fill="#0C1228"/>
</svg>