<svg xmlns="http://www.w3.org/2000/svg"  viewBox="0 0 40 40" fill="none">
  <g clip-path="url(#clip0_9799_22654)">
    <path d="M39.9996 21.2504C39.9996 21.5819 39.8679 21.8999 39.6335 22.1343C39.3991 22.3687 39.0811 22.5004 38.7496 22.5004H36.2496V25.0004C36.2496 25.3319 36.1179 25.6499 35.8835 25.8843C35.6491 26.1187 35.3311 26.2504 34.9996 26.2504C34.6681 26.2504 34.3501 26.1187 34.1157 25.8843C33.8813 25.6499 33.7496 25.3319 33.7496 25.0004V22.5004H31.2496C30.9181 22.5004 30.6001 22.3687 30.3657 22.1343C30.1313 21.8999 29.9996 21.5819 29.9996 21.2504C29.9996 20.9189 30.1313 20.6009 30.3657 20.3665C30.6001 20.1321 30.9181 20.0004 31.2496 20.0004H33.7496V17.5004C33.7496 17.1689 33.8813 16.8509 34.1157 16.6165C34.3501 16.3821 34.6681 16.2504 34.9996 16.2504C35.3311 16.2504 35.6491 16.3821 35.8835 16.6165C36.1179 16.8509 36.2496 17.1689 36.2496 17.5004V20.0004H38.7496C39.0811 20.0004 39.3991 20.1321 39.6335 20.3665C39.8679 20.6009 39.9996 20.9189 39.9996 21.2504ZM30.9574 30.4457C31.1708 30.6997 31.2746 31.0281 31.2459 31.3587C31.2172 31.6892 31.0583 31.9948 30.8043 32.2082C30.5503 32.4216 30.2219 32.5254 29.8913 32.4967C29.5608 32.468 29.2552 32.3091 29.0418 32.0551C25.898 28.3113 21.5762 26.2504 16.8746 26.2504C12.173 26.2504 7.85116 28.3113 4.70741 32.0551C4.49399 32.3089 4.18849 32.4675 3.8581 32.4961C3.52771 32.5247 3.19951 32.4208 2.94569 32.2074C2.69187 31.994 2.53322 31.6885 2.50465 31.3581C2.47608 31.0277 2.57993 30.6995 2.79334 30.4457C5.12772 27.6676 8.03084 25.6941 11.2574 24.6379C9.29788 23.4174 7.78916 21.592 6.95949 19.4377C6.12983 17.2834 6.02436 14.9175 6.65905 12.698C7.29374 10.4784 8.63405 8.52596 10.4772 7.13598C12.3204 5.746 14.5661 4.99414 16.8746 4.99414C19.1831 4.99414 21.4288 5.746 23.272 7.13598C25.1151 8.52596 26.4555 10.4784 27.0901 12.698C27.7248 14.9175 27.6194 17.2834 26.7897 19.4377C25.96 21.592 24.4513 23.4174 22.4918 24.6379C25.7183 25.6941 28.6215 27.6676 30.9574 30.4457ZM16.8746 23.7504C18.4816 23.7504 20.0525 23.2739 21.3886 22.3811C22.7248 21.4883 23.7662 20.2193 24.3811 18.7347C24.9961 17.25 25.157 15.6164 24.8435 14.0403C24.53 12.4642 23.7561 11.0164 22.6198 9.88015C21.4835 8.74385 20.0358 7.97001 18.4597 7.65651C16.8836 7.343 15.2499 7.50391 13.7653 8.11887C12.2806 8.73383 11.0117 9.77523 10.1189 11.1114C9.22612 12.4475 8.74959 14.0184 8.74959 15.6254C8.75208 17.7795 9.6089 19.8447 11.1321 21.3679C12.6553 22.8911 14.7205 23.7479 16.8746 23.7504Z" fill="#573EF0"/>
  </g>
  <defs>
    <clipPath id="clip0_9799_22654">
      <rect width="40" height="40" fill="white"/>
    </clipPath>
  </defs>
</svg>