<svg  viewBox="0 0 69 62"  xmlns="http://www.w3.org/2000/svg">
<path d="M68.875 37.5V57.5C68.875 58.6603 68.4141 59.7731 67.5936 60.5936C66.7731 61.4141 65.6603 61.875 64.5 61.875H4.5C3.33968 61.875 2.22688 61.4141 1.40641 60.5936C0.585936 59.7731 0.125 58.6603 0.125 57.5V37.5C0.125 36.3397 0.585936 35.2269 1.40641 34.4064C2.22688 33.5859 3.33968 33.125 4.5 33.125H17C17.4973 33.125 17.9742 33.3225 18.3258 33.6742C18.6775 34.0258 18.875 34.5027 18.875 35C18.875 35.4973 18.6775 35.9742 18.3258 36.3258C17.9742 36.6775 17.4973 36.875 17 36.875H4.5C4.33424 36.875 4.17527 36.9408 4.05806 37.0581C3.94085 37.1753 3.875 37.3342 3.875 37.5V57.5C3.875 57.6658 3.94085 57.8247 4.05806 57.9419C4.17527 58.0592 4.33424 58.125 4.5 58.125H64.5C64.6658 58.125 64.8247 58.0592 64.9419 57.9419C65.0592 57.8247 65.125 57.6658 65.125 57.5V37.5C65.125 37.3342 65.0592 37.1753 64.9419 37.0581C64.8247 36.9408 64.6658 36.875 64.5 36.875H52C51.5027 36.875 51.0258 36.6775 50.6742 36.3258C50.3225 35.9742 50.125 35.4973 50.125 35C50.125 34.5027 50.3225 34.0258 50.6742 33.6742C51.0258 33.3225 51.5027 33.125 52 33.125H64.5C65.6603 33.125 66.7731 33.5859 67.5936 34.4064C68.4141 35.2269 68.875 36.3397 68.875 37.5ZM33.175 36.325C33.5266 36.6761 34.0031 36.8734 34.5 36.8734C34.9969 36.8734 35.4734 36.6761 35.825 36.325L50.825 21.325C51.1562 20.9696 51.3365 20.4994 51.3279 20.0137C51.3194 19.5279 51.1226 19.0645 50.7791 18.7209C50.4355 18.3774 49.9721 18.1806 49.4863 18.1721C49.0006 18.1635 48.5304 18.3438 48.175 18.675L36.375 30.4719V2.5C36.375 2.00272 36.1775 1.52581 35.8258 1.17417C35.4742 0.822544 34.9973 0.625 34.5 0.625C34.0027 0.625 33.5258 0.822544 33.1742 1.17417C32.8225 1.52581 32.625 2.00272 32.625 2.5V30.4719L20.825 18.675C20.4696 18.3438 19.9994 18.1635 19.5137 18.1721C19.0279 18.1806 18.5645 18.3774 18.2209 18.7209C17.8774 19.0645 17.6806 19.5279 17.6721 20.0137C17.6635 20.4994 17.8438 20.9696 18.175 21.325L33.175 36.325ZM56.375 47.5C56.375 46.8819 56.1917 46.2777 55.8483 45.7638C55.505 45.2499 55.0169 44.8494 54.4459 44.6129C53.8749 44.3764 53.2465 44.3145 52.6403 44.435C52.0342 44.5556 51.4773 44.8532 51.0403 45.2903C50.6032 45.7273 50.3056 46.2842 50.185 46.8903C50.0645 47.4965 50.1264 48.1249 50.3629 48.6959C50.5994 49.2669 50.9999 49.755 51.5138 50.0983C52.0277 50.4417 52.6319 50.625 53.25 50.625C54.0788 50.625 54.8737 50.2958 55.4597 49.7097C56.0458 49.1237 56.375 48.3288 56.375 47.5Z" />
</svg>
