<svg  viewBox="0 0 70 50"  xmlns="http://www.w3.org/2000/svg">
<path d="M54.375 20C54.375 20.4973 54.1775 20.9742 53.8258 21.3258C53.4742 21.6775 52.9973 21.875 52.5 21.875H27.5C27.0027 21.875 26.5258 21.6775 26.1742 21.3258C25.8225 20.9742 25.625 20.4973 25.625 20C25.625 19.5027 25.8225 19.0258 26.1742 18.6742C26.5258 18.3225 27.0027 18.125 27.5 18.125H52.5C52.9973 18.125 53.4742 18.3225 53.8258 18.6742C54.1775 19.0258 54.375 19.5027 54.375 20ZM52.5 28.125H27.5C27.0027 28.125 26.5258 28.3225 26.1742 28.6742C25.8225 29.0258 25.625 29.5027 25.625 30C25.625 30.4973 25.8225 30.9742 26.1742 31.3258C26.5258 31.6775 27.0027 31.875 27.5 31.875H52.5C52.9973 31.875 53.4742 31.6775 53.8258 31.3258C54.1775 30.9742 54.375 30.4973 54.375 30C54.375 29.5027 54.1775 29.0258 53.8258 28.6742C53.4742 28.3225 52.9973 28.125 52.5 28.125ZM69.375 5V42.5C69.375 44.3234 68.6507 46.072 67.3614 47.3614C66.072 48.6507 64.3234 49.375 62.5 49.375H7.5C5.6815 49.375 3.93706 48.6545 2.64856 47.3713C1.36005 46.0881 0.632439 44.3466 0.625 42.5281V12.5C0.625 12.0027 0.822544 11.5258 1.17417 11.1742C1.52581 10.8225 2.00272 10.625 2.5 10.625C2.99728 10.625 3.47419 10.8225 3.82583 11.1742C4.17746 11.5258 4.375 12.0027 4.375 12.5V42.5C4.375 43.3288 4.70424 44.1237 5.29029 44.7097C5.87634 45.2958 6.6712 45.625 7.5 45.625C8.3288 45.625 9.12366 45.2958 9.70971 44.7097C10.2958 44.1237 10.625 43.3288 10.625 42.5V5C10.625 3.83968 11.0859 2.72688 11.9064 1.90641C12.7269 1.08594 13.8397 0.625 15 0.625H65C66.1603 0.625 67.2731 1.08594 68.0936 1.90641C68.9141 2.72688 69.375 3.83968 69.375 5ZM65.625 5C65.625 4.83424 65.5592 4.67527 65.4419 4.55806C65.3247 4.44085 65.1658 4.375 65 4.375H15C14.8342 4.375 14.6753 4.44085 14.5581 4.55806C14.4408 4.67527 14.375 4.83424 14.375 5V42.5C14.3763 43.5868 14.1181 44.6582 13.6219 45.625H62.5C63.3288 45.625 64.1237 45.2958 64.7097 44.7097C65.2958 44.1237 65.625 43.3288 65.625 42.5V5Z" />
<path d="M54.375 20C54.375 20.4973 54.1775 20.9742 53.8258 21.3258C53.4742 21.6775 52.9973 21.875 52.5 21.875H27.5C27.0027 21.875 26.5258 21.6775 26.1742 21.3258C25.8225 20.9742 25.625 20.4973 25.625 20C25.625 19.5027 25.8225 19.0258 26.1742 18.6742C26.5258 18.3225 27.0027 18.125 27.5 18.125H52.5C52.9973 18.125 53.4742 18.3225 53.8258 18.6742C54.1775 19.0258 54.375 19.5027 54.375 20ZM52.5 28.125H27.5C27.0027 28.125 26.5258 28.3225 26.1742 28.6742C25.8225 29.0258 25.625 29.5027 25.625 30C25.625 30.4973 25.8225 30.9742 26.1742 31.3258C26.5258 31.6775 27.0027 31.875 27.5 31.875H52.5C52.9973 31.875 53.4742 31.6775 53.8258 31.3258C54.1775 30.9742 54.375 30.4973 54.375 30C54.375 29.5027 54.1775 29.0258 53.8258 28.6742C53.4742 28.3225 52.9973 28.125 52.5 28.125ZM69.375 5V42.5C69.375 44.3234 68.6507 46.072 67.3614 47.3614C66.072 48.6507 64.3234 49.375 62.5 49.375H7.5C5.6815 49.375 3.93706 48.6545 2.64856 47.3713C1.36005 46.0881 0.632439 44.3466 0.625 42.5281V12.5C0.625 12.0027 0.822544 11.5258 1.17417 11.1742C1.52581 10.8225 2.00272 10.625 2.5 10.625C2.99728 10.625 3.47419 10.8225 3.82583 11.1742C4.17746 11.5258 4.375 12.0027 4.375 12.5V42.5C4.375 43.3288 4.70424 44.1237 5.29029 44.7097C5.87634 45.2958 6.6712 45.625 7.5 45.625C8.3288 45.625 9.12366 45.2958 9.70971 44.7097C10.2958 44.1237 10.625 43.3288 10.625 42.5V5C10.625 3.83968 11.0859 2.72688 11.9064 1.90641C12.7269 1.08594 13.8397 0.625 15 0.625H65C66.1603 0.625 67.2731 1.08594 68.0936 1.90641C68.9141 2.72688 69.375 3.83968 69.375 5ZM65.625 5C65.625 4.83424 65.5592 4.67527 65.4419 4.55806C65.3247 4.44085 65.1658 4.375 65 4.375H15C14.8342 4.375 14.6753 4.44085 14.5581 4.55806C14.4408 4.67527 14.375 4.83424 14.375 5V42.5C14.3763 43.5868 14.1181 44.6582 13.6219 45.625H62.5C63.3288 45.625 64.1237 45.2958 64.7097 44.7097C65.2958 44.1237 65.625 43.3288 65.625 42.5V5Z" />
<path d="M54.375 20C54.375 20.4973 54.1775 20.9742 53.8258 21.3258C53.4742 21.6775 52.9973 21.875 52.5 21.875H27.5C27.0027 21.875 26.5258 21.6775 26.1742 21.3258C25.8225 20.9742 25.625 20.4973 25.625 20C25.625 19.5027 25.8225 19.0258 26.1742 18.6742C26.5258 18.3225 27.0027 18.125 27.5 18.125H52.5C52.9973 18.125 53.4742 18.3225 53.8258 18.6742C54.1775 19.0258 54.375 19.5027 54.375 20ZM52.5 28.125H27.5C27.0027 28.125 26.5258 28.3225 26.1742 28.6742C25.8225 29.0258 25.625 29.5027 25.625 30C25.625 30.4973 25.8225 30.9742 26.1742 31.3258C26.5258 31.6775 27.0027 31.875 27.5 31.875H52.5C52.9973 31.875 53.4742 31.6775 53.8258 31.3258C54.1775 30.9742 54.375 30.4973 54.375 30C54.375 29.5027 54.1775 29.0258 53.8258 28.6742C53.4742 28.3225 52.9973 28.125 52.5 28.125ZM69.375 5V42.5C69.375 44.3234 68.6507 46.072 67.3614 47.3614C66.072 48.6507 64.3234 49.375 62.5 49.375H7.5C5.6815 49.375 3.93706 48.6545 2.64856 47.3713C1.36005 46.0881 0.632439 44.3466 0.625 42.5281V12.5C0.625 12.0027 0.822544 11.5258 1.17417 11.1742C1.52581 10.8225 2.00272 10.625 2.5 10.625C2.99728 10.625 3.47419 10.8225 3.82583 11.1742C4.17746 11.5258 4.375 12.0027 4.375 12.5V42.5C4.375 43.3288 4.70424 44.1237 5.29029 44.7097C5.87634 45.2958 6.6712 45.625 7.5 45.625C8.3288 45.625 9.12366 45.2958 9.70971 44.7097C10.2958 44.1237 10.625 43.3288 10.625 42.5V5C10.625 3.83968 11.0859 2.72688 11.9064 1.90641C12.7269 1.08594 13.8397 0.625 15 0.625H65C66.1603 0.625 67.2731 1.08594 68.0936 1.90641C68.9141 2.72688 69.375 3.83968 69.375 5ZM65.625 5C65.625 4.83424 65.5592 4.67527 65.4419 4.55806C65.3247 4.44085 65.1658 4.375 65 4.375H15C14.8342 4.375 14.6753 4.44085 14.5581 4.55806C14.4408 4.67527 14.375 4.83424 14.375 5V42.5C14.3763 43.5868 14.1181 44.6582 13.6219 45.625H62.5C63.3288 45.625 64.1237 45.2958 64.7097 44.7097C65.2958 44.1237 65.625 43.3288 65.625 42.5V5Z"/>
</svg>
