<svg  viewBox="0 0 81 80"  xmlns="http://www.w3.org/2000/svg">
<path d="M57.375 35C57.375 35.4973 57.1775 35.9742 56.8258 36.3258C56.4742 36.6775 55.9973 36.875 55.5 36.875H35.5C35.0027 36.875 34.5258 36.6775 34.1742 36.3258C33.8225 35.9742 33.625 35.4973 33.625 35C33.625 34.5027 33.8225 34.0258 34.1742 33.6742C34.5258 33.3225 35.0027 33.125 35.5 33.125H55.5C55.9973 33.125 56.4742 33.3225 56.8258 33.6742C57.1775 34.0258 57.375 34.5027 57.375 35ZM55.5 43.125H35.5C35.0027 43.125 34.5258 43.3225 34.1742 43.6742C33.8225 44.0258 33.625 44.5027 33.625 45C33.625 45.4973 33.8225 45.9742 34.1742 46.3258C34.5258 46.6775 35.0027 46.875 35.5 46.875H55.5C55.9973 46.875 56.4742 46.6775 56.8258 46.3258C57.1775 45.9742 57.375 45.4973 57.375 45C57.375 44.5027 57.1775 44.0258 56.8258 43.6742C56.4742 43.3225 55.9973 43.125 55.5 43.125ZM69.875 15V65C69.875 66.1603 69.4141 67.2731 68.5936 68.0936C67.7731 68.9141 66.6603 69.375 65.5 69.375H15.5C14.3397 69.375 13.2269 68.9141 12.4064 68.0936C11.5859 67.2731 11.125 66.1603 11.125 65V15C11.125 13.8397 11.5859 12.7269 12.4064 11.9064C13.2269 11.0859 14.3397 10.625 15.5 10.625H65.5C66.6603 10.625 67.7731 11.0859 68.5936 11.9064C69.4141 12.7269 69.875 13.8397 69.875 15ZM15.5 65.625H23.625V14.375H15.5C15.3342 14.375 15.1753 14.4408 15.0581 14.5581C14.9408 14.6753 14.875 14.8342 14.875 15V65C14.875 65.1658 14.9408 65.3247 15.0581 65.4419C15.1753 65.5592 15.3342 65.625 15.5 65.625ZM66.125 15C66.125 14.8342 66.0592 14.6753 65.9419 14.5581C65.8247 14.4408 65.6658 14.375 65.5 14.375H27.375V65.625H65.5C65.6658 65.625 65.8247 65.5592 65.9419 65.4419C66.0592 65.3247 66.125 65.1658 66.125 65V15Z" />
</svg>
