<svg viewBox="0 0 81 80" xmlns="http://www.w3.org/2000/svg">
<path d="M43.625 56.25C43.625 56.8681 43.4417 57.4723 43.0984 57.9862C42.755 58.5001 42.2669 58.9006 41.6959 59.1371C41.1249 59.3736 40.4965 59.4355 39.8904 59.3149C39.2842 59.1944 38.7273 58.8967 38.2903 58.4597C37.8533 58.0227 37.5556 57.4658 37.4351 56.8596C37.3145 56.2535 37.3764 55.6251 37.6129 55.0541C37.8494 54.4831 38.25 53.995 38.7639 53.6517C39.2778 53.3083 39.8819 53.125 40.5 53.125C41.3288 53.125 42.1237 53.4542 42.7097 54.0403C43.2958 54.6263 43.625 55.4212 43.625 56.25ZM40.5 23.125C33.9375 23.125 28.625 27.8906 28.625 33.75V35C28.625 35.4973 28.8226 35.9742 29.1742 36.3258C29.5258 36.6775 30.0027 36.875 30.5 36.875C30.9973 36.875 31.4742 36.6775 31.8258 36.3258C32.1775 35.9742 32.375 35.4973 32.375 35V33.75C32.375 29.9594 36.0188 26.875 40.5 26.875C44.9813 26.875 48.625 29.9594 48.625 33.75C48.625 37.5406 44.9813 40.625 40.5 40.625C40.0027 40.625 39.5258 40.8225 39.1742 41.1742C38.8226 41.5258 38.625 42.0027 38.625 42.5V45C38.625 45.4973 38.8226 45.9742 39.1742 46.3258C39.5258 46.6775 40.0027 46.875 40.5 46.875C40.9973 46.875 41.4742 46.6775 41.8258 46.3258C42.1775 45.9742 42.375 45.4973 42.375 45V44.2437C48.0344 43.4375 52.375 39.0375 52.375 33.75C52.375 27.8906 47.0625 23.125 40.5 23.125ZM72.375 40C72.375 46.3043 70.5056 52.467 67.0031 57.7088C63.5006 62.9506 58.5224 67.0361 52.698 69.4487C46.8736 71.8612 40.4647 72.4924 34.2815 71.2625C28.0984 70.0326 22.4188 66.9968 17.961 62.539C13.5032 58.0812 10.4674 52.4016 9.23748 46.2185C8.00758 40.0354 8.63881 33.6264 11.0514 27.802C13.4639 21.9776 17.5494 16.9994 22.7912 13.4969C28.033 9.99444 34.1957 8.125 40.5 8.125C48.9507 8.13492 57.0525 11.4964 63.0281 17.4719C69.0036 23.4475 72.3651 31.5493 72.375 40ZM68.625 40C68.625 34.4374 66.9755 28.9997 63.8851 24.3746C60.7947 19.7495 56.4022 16.1446 51.263 14.0159C46.1238 11.8872 40.4688 11.3302 35.0131 12.4154C29.5574 13.5006 24.546 16.1793 20.6126 20.1126C16.6793 24.046 14.0006 29.0574 12.9154 34.5131C11.8302 39.9688 12.3872 45.6238 14.5159 50.763C16.6446 55.9021 20.2495 60.2947 24.8746 63.3851C29.4997 66.4755 34.9374 68.125 40.5 68.125C47.9567 68.1167 55.1056 65.1509 60.3783 59.8782C65.6509 54.6056 68.6167 47.4567 68.625 40Z" />
<path d="M43.625 56.25C43.625 56.8681 43.4417 57.4723 43.0984 57.9862C42.755 58.5001 42.2669 58.9006 41.6959 59.1371C41.1249 59.3736 40.4965 59.4355 39.8904 59.3149C39.2842 59.1944 38.7273 58.8967 38.2903 58.4597C37.8533 58.0227 37.5556 57.4658 37.4351 56.8596C37.3145 56.2535 37.3764 55.6251 37.6129 55.0541C37.8494 54.4831 38.25 53.995 38.7639 53.6517C39.2778 53.3083 39.8819 53.125 40.5 53.125C41.3288 53.125 42.1237 53.4542 42.7097 54.0403C43.2958 54.6263 43.625 55.4212 43.625 56.25ZM40.5 23.125C33.9375 23.125 28.625 27.8906 28.625 33.75V35C28.625 35.4973 28.8226 35.9742 29.1742 36.3258C29.5258 36.6775 30.0027 36.875 30.5 36.875C30.9973 36.875 31.4742 36.6775 31.8258 36.3258C32.1775 35.9742 32.375 35.4973 32.375 35V33.75C32.375 29.9594 36.0188 26.875 40.5 26.875C44.9813 26.875 48.625 29.9594 48.625 33.75C48.625 37.5406 44.9813 40.625 40.5 40.625C40.0027 40.625 39.5258 40.8225 39.1742 41.1742C38.8226 41.5258 38.625 42.0027 38.625 42.5V45C38.625 45.4973 38.8226 45.9742 39.1742 46.3258C39.5258 46.6775 40.0027 46.875 40.5 46.875C40.9973 46.875 41.4742 46.6775 41.8258 46.3258C42.1775 45.9742 42.375 45.4973 42.375 45V44.2437C48.0344 43.4375 52.375 39.0375 52.375 33.75C52.375 27.8906 47.0625 23.125 40.5 23.125ZM72.375 40C72.375 46.3043 70.5056 52.467 67.0031 57.7088C63.5006 62.9506 58.5224 67.0361 52.698 69.4487C46.8736 71.8612 40.4647 72.4924 34.2815 71.2625C28.0984 70.0326 22.4188 66.9968 17.961 62.539C13.5032 58.0812 10.4674 52.4016 9.23748 46.2185C8.00758 40.0354 8.63881 33.6264 11.0514 27.802C13.4639 21.9776 17.5494 16.9994 22.7912 13.4969C28.033 9.99444 34.1957 8.125 40.5 8.125C48.9507 8.13492 57.0525 11.4964 63.0281 17.4719C69.0036 23.4475 72.3651 31.5493 72.375 40ZM68.625 40C68.625 34.4374 66.9755 28.9997 63.8851 24.3746C60.7947 19.7495 56.4022 16.1446 51.263 14.0159C46.1238 11.8872 40.4688 11.3302 35.0131 12.4154C29.5574 13.5006 24.546 16.1793 20.6126 20.1126C16.6793 24.046 14.0006 29.0574 12.9154 34.5131C11.8302 39.9688 12.3872 45.6238 14.5159 50.763C16.6446 55.9021 20.2495 60.2947 24.8746 63.3851C29.4997 66.4755 34.9374 68.125 40.5 68.125C47.9567 68.1167 55.1056 65.1509 60.3783 59.8782C65.6509 54.6056 68.6167 47.4567 68.625 40Z" />
<path d="M43.625 56.25C43.625 56.8681 43.4417 57.4723 43.0984 57.9862C42.755 58.5001 42.2669 58.9006 41.6959 59.1371C41.1249 59.3736 40.4965 59.4355 39.8904 59.3149C39.2842 59.1944 38.7273 58.8967 38.2903 58.4597C37.8533 58.0227 37.5556 57.4658 37.4351 56.8596C37.3145 56.2535 37.3764 55.6251 37.6129 55.0541C37.8494 54.4831 38.25 53.995 38.7639 53.6517C39.2778 53.3083 39.8819 53.125 40.5 53.125C41.3288 53.125 42.1237 53.4542 42.7097 54.0403C43.2958 54.6263 43.625 55.4212 43.625 56.25ZM40.5 23.125C33.9375 23.125 28.625 27.8906 28.625 33.75V35C28.625 35.4973 28.8226 35.9742 29.1742 36.3258C29.5258 36.6775 30.0027 36.875 30.5 36.875C30.9973 36.875 31.4742 36.6775 31.8258 36.3258C32.1775 35.9742 32.375 35.4973 32.375 35V33.75C32.375 29.9594 36.0188 26.875 40.5 26.875C44.9813 26.875 48.625 29.9594 48.625 33.75C48.625 37.5406 44.9813 40.625 40.5 40.625C40.0027 40.625 39.5258 40.8225 39.1742 41.1742C38.8226 41.5258 38.625 42.0027 38.625 42.5V45C38.625 45.4973 38.8226 45.9742 39.1742 46.3258C39.5258 46.6775 40.0027 46.875 40.5 46.875C40.9973 46.875 41.4742 46.6775 41.8258 46.3258C42.1775 45.9742 42.375 45.4973 42.375 45V44.2437C48.0344 43.4375 52.375 39.0375 52.375 33.75C52.375 27.8906 47.0625 23.125 40.5 23.125ZM72.375 40C72.375 46.3043 70.5056 52.467 67.0031 57.7088C63.5006 62.9506 58.5224 67.0361 52.698 69.4487C46.8736 71.8612 40.4647 72.4924 34.2815 71.2625C28.0984 70.0326 22.4188 66.9968 17.961 62.539C13.5032 58.0812 10.4674 52.4016 9.23748 46.2185C8.00758 40.0354 8.63881 33.6264 11.0514 27.802C13.4639 21.9776 17.5494 16.9994 22.7912 13.4969C28.033 9.99444 34.1957 8.125 40.5 8.125C48.9507 8.13492 57.0525 11.4964 63.0281 17.4719C69.0036 23.4475 72.3651 31.5493 72.375 40ZM68.625 40C68.625 34.4374 66.9755 28.9997 63.8851 24.3746C60.7947 19.7495 56.4022 16.1446 51.263 14.0159C46.1238 11.8872 40.4688 11.3302 35.0131 12.4154C29.5574 13.5006 24.546 16.1793 20.6126 20.1126C16.6793 24.046 14.0006 29.0574 12.9154 34.5131C11.8302 39.9688 12.3872 45.6238 14.5159 50.763C16.6446 55.9021 20.2495 60.2947 24.8746 63.3851C29.4997 66.4755 34.9374 68.125 40.5 68.125C47.9567 68.1167 55.1056 65.1509 60.3783 59.8782C65.6509 54.6056 68.6167 47.4567 68.625 40Z" />
</svg>
