<svg viewBox="0 0 81 80" xmlns="http://www.w3.org/2000/svg">
<path d="M51.5406 33.4375L36.5406 23.4375C36.2581 23.249 35.9296 23.1408 35.5903 23.1244C35.2511 23.108 34.9137 23.1841 34.6143 23.3446C34.315 23.505 34.0648 23.7438 33.8905 24.0353C33.7163 24.3269 33.6245 24.6603 33.625 25V45C33.6245 45.3397 33.7163 45.6731 33.8905 45.9647C34.0648 46.2562 34.315 46.495 34.6143 46.6554C34.9137 46.8159 35.2511 46.892 35.5903 46.8756C35.9296 46.8592 36.2581 46.751 36.5406 46.5625L51.5406 36.5625C51.7985 36.3915 52.01 36.1593 52.1563 35.8866C52.3026 35.614 52.3792 35.3094 52.3792 35C52.3792 34.6906 52.3026 34.386 52.1563 34.1134C52.01 33.8407 51.7985 33.6085 51.5406 33.4375ZM37.375 41.4969V28.5031L47.1187 35L37.375 41.4969ZM68 13.125H13C11.8397 13.125 10.7269 13.5859 9.90641 14.4064C9.08594 15.2269 8.625 16.3397 8.625 17.5V52.5C8.625 53.6603 9.08594 54.7731 9.90641 55.5936C10.7269 56.4141 11.8397 56.875 13 56.875H68C69.1603 56.875 70.2731 56.4141 71.0936 55.5936C71.9141 54.7731 72.375 53.6603 72.375 52.5V17.5C72.375 16.3397 71.9141 15.2269 71.0936 14.4064C70.2731 13.5859 69.1603 13.125 68 13.125ZM68.625 52.5C68.625 52.6658 68.5592 52.8247 68.4419 52.9419C68.3247 53.0592 68.1658 53.125 68 53.125H13C12.8342 53.125 12.6753 53.0592 12.5581 52.9419C12.4408 52.8247 12.375 52.6658 12.375 52.5V17.5C12.375 17.3342 12.4408 17.1753 12.5581 17.0581C12.6753 16.9408 12.8342 16.875 13 16.875H68C68.1658 16.875 68.3247 16.9408 68.4419 17.0581C68.5592 17.1753 68.625 17.3342 68.625 17.5V52.5ZM72.375 65C72.375 65.4973 72.1775 65.9742 71.8258 66.3258C71.4742 66.6775 70.9973 66.875 70.5 66.875H10.5C10.0027 66.875 9.52581 66.6775 9.17417 66.3258C8.82254 65.9742 8.625 65.4973 8.625 65C8.625 64.5027 8.82254 64.0258 9.17417 63.6742C9.52581 63.3225 10.0027 63.125 10.5 63.125H70.5C70.9973 63.125 71.4742 63.3225 71.8258 63.6742C72.1775 64.0258 72.375 64.5027 72.375 65Z"/>
</svg>
